<?xml version="1.0" standalone="no"?>
<!DOCTYPE svg PUBLIC "-//W3C//DTD SVG 20010904//EN"
 "http://www.w3.org/TR/2001/REC-SVG-20010904/DTD/svg10.dtd">
<svg version="1.0" xmlns="http://www.w3.org/2000/svg"
 width="512.000000pt" height="512.000000pt" viewBox="0 0 512.000000 512.000000"
 preserveAspectRatio="xMidYMid meet">
<metadata>
Created by potrace 1.11, written by Peter Selinger 2001-2013
</metadata>
<g transform="translate(0.000000,512.000000) scale(0.100000,-0.100000)"
fill="#000000" stroke="none">
<path d="M2525 4550 c-176 -26 -331 -235 -439 -593 -30 -98 -75 -284 -90 -371
-3 -16 -7 -30 -9 -33 -3 -2 -29 5 -58 17 -96 36 -381 115 -406 112 -2 -1 -17
3 -34 8 -77 22 -334 34 -409 19 -89 -18 -170 -59 -212 -105 -63 -72 -83 -181
-53 -296 45 -175 247 -436 530 -686 l70 -61 -70 -63 c-201 -179 -385 -389
-465 -531 -144 -257 -88 -468 146 -543 57 -18 263 -27 344 -14 30 4 75 11 100
15 74 11 298 71 410 108 57 20 106 35 107 33 2 -1 12 -47 24 -102 11 -54 22
-107 24 -116 30 -139 104 -355 158 -463 70 -140 155 -241 240 -286 58 -30 150
-36 215 -15 168 56 312 291 418 684 25 96 28 102 59 112 45 15 91 59 112 106
l18 41 115 -34 c208 -61 349 -85 505 -87 77 0 154 2 170 6 255 54 344 261 219
511 -83 163 -264 376 -489 575 l-70 61 70 63 c217 193 408 415 480 558 137
272 60 466 -210 527 -40 9 -256 9 -325 0 -30 -4 -104 -18 -163 -32 l-108 -24
-42 30 c-65 45 -139 50 -212 14 -31 -15 -59 -33 -62 -41 -7 -19 -23 -18 -23 2
0 31 -69 290 -104 390 -104 297 -245 477 -393 500 -21 3 -40 7 -43 8 -3 1 -23
0 -45 -4z m91 -216 c117 -76 241 -376 313 -761 l18 -94 -64 -29 c-35 -17 -66
-30 -69 -30 -2 0 -60 -27 -129 -60 l-125 -60 -122 58 c-68 32 -154 72 -191 88
l-68 29 5 45 c5 51 27 155 57 274 68 271 176 488 273 547 41 25 54 24 102 -7z
m-1142 -839 c210 -42 478 -129 481 -155 2 -8 -1 -41 -5 -73 -8 -56 -16 -146
-25 -272 -3 -48 -9 -63 -27 -77 -75 -56 -320 -228 -325 -228 -7 0 -85 63 -124
100 -14 14 -53 50 -85 81 -205 195 -348 393 -370 512 -8 46 9 90 41 107 79 42
247 44 439 5z m2551 16 c72 -17 105 -49 105 -101 0 -62 -69 -196 -161 -311
-98 -124 -392 -409 -422 -409 -5 0 -251 173 -324 228 -19 14 -24 29 -28 92 -6
85 -13 166 -24 258 -4 34 -7 62 -5 62 1 0 19 -7 39 -16 72 -30 167 -13 224 39
13 12 32 41 43 64 20 46 28 50 168 78 159 33 293 38 385 16z m-1762 -285 c42
-19 77 -37 77 -39 0 -7 -204 -121 -210 -119 -6 3 -5 13 4 102 6 54 12 95 15
108 1 1 9 -2 19 -8 9 -5 52 -25 95 -44z m722 -43 c4 -49 9 -96 11 -106 4 -22
13 -26 -114 47 -57 32 -99 63 -95 67 11 11 165 78 179 79 7 0 14 -33 19 -87z
m-336 -150 c173 -93 352 -205 359 -224 10 -26 9 -491 -1 -506 -10 -16 -212
-137 -385 -231 l-62 -33 -88 47 c-137 74 -350 203 -358 216 -8 12 -13 406 -6
477 4 37 9 45 56 75 65 43 382 224 395 226 2 0 42 -21 90 -47z m-742 -499 c-2
-3 -21 3 -42 11 -22 10 -55 15 -81 12 -25 -2 -43 0 -42 5 2 5 39 35 83 68 l80
58 3 -75 c2 -42 1 -77 -1 -79z m1421 72 c28 -21 52 -42 52 -46 0 -4 -38 -35
-85 -69 l-85 -61 0 131 0 131 33 -24 c17 -14 56 -42 85 -62z m-1736 -197 c-10
-40 -3 -119 13 -149 35 -69 77 -101 156 -119 35 -8 54 -6 99 9 30 10 56 17 59
15 3 -4 5 -27 15 -150 2 -33 8 -91 12 -130 13 -130 21 -116 -86 -154 -104 -36
-244 -77 -332 -96 -111 -24 -118 -25 -188 -32 -132 -14 -226 -7 -284 21 -59
29 -67 43 -60 109 8 74 119 260 213 359 161 167 215 218 306 296 49 41 83 51
77 21z m2012 -21 c224 -187 419 -410 489 -559 33 -71 41 -113 27 -154 -40
-120 -373 -104 -800 38 -133 45 -155 55 -154 72 1 11 4 49 8 85 14 140 17 177
21 225 2 28 4 60 4 72 1 16 28 40 104 92 56 39 131 93 167 120 36 27 69 50 74
50 6 1 33 -18 60 -41z m-1270 -449 c5 -5 -26 -24 -70 -44 -103 -48 -124 -56
-122 -47 1 4 -2 41 -6 82 -8 66 -10 110 -7 125 1 4 188 -101 205 -116z m660
74 c-4 -27 -8 -57 -9 -68 -2 -11 -4 -37 -4 -57 -1 -42 -11 -46 -57 -24 -16 8
-57 26 -91 41 l-63 28 33 17 c17 10 68 39 112 64 44 25 81 46 82 46 2 0 0 -21
-3 -47z m-288 -262 c120 -56 148 -73 146 -88 -18 -115 -14 -152 23 -207 20
-29 24 -44 19 -74 -3 -20 -8 -40 -11 -45 -2 -4 -7 -20 -9 -35 -11 -60 -88
-272 -127 -347 -47 -90 -142 -195 -177 -195 -92 0 -200 158 -285 415 -36 111
-44 140 -79 308 l-33 158 56 25 c116 51 309 142 327 153 0 1 68 -30 150 -68z"/>
<path d="M2525 2866 c-16 -7 -38 -23 -48 -34 -15 -16 -30 -20 -73 -20 -61 1
-95 -17 -124 -65 -33 -54 -21 -147 24 -179 5 -3 2 -14 -8 -24 -39 -39 -49
-110 -21 -163 24 -48 69 -73 128 -73 41 0 57 -5 77 -23 55 -52 127 -55 188 -8
20 15 51 28 70 30 62 7 116 60 123 123 4 35 -10 86 -26 100 -12 10 -11 18 6
49 26 50 27 101 3 142 -22 37 -70 69 -107 72 -14 1 -35 14 -47 30 -12 15 -30
32 -41 38 -32 17 -92 19 -124 5z"/>
</g>
</svg>
