<?xml version="1.0" standalone="no"?>
<!DOCTYPE svg PUBLIC "-//W3C//DTD SVG 20010904//EN"
 "http://www.w3.org/TR/2001/REC-SVG-20010904/DTD/svg10.dtd">
<svg version="1.0" xmlns="http://www.w3.org/2000/svg"
 width="700.000000pt" height="700.000000pt" viewBox="0 0 700.000000 700.000000"
 preserveAspectRatio="xMidYMid meet">
<metadata>
Created by potrace 1.11, written by Peter Selinger 2001-2013
</metadata>
<g transform="translate(0.000000,700.000000) scale(0.100000,-0.100000)"
fill="#000000" stroke="none">
<path d="M3396 6210 c-211 -66 -386 -311 -526 -740 -51 -156 -122 -447 -144
-590 -4 -29 8 -31 -166 27 -372 123 -661 179 -910 176 -124 -2 -179 -10 -269
-39 -250 -83 -346 -292 -255 -562 85 -254 324 -551 736 -916 l77 -68 -32 -26
c-103 -84 -290 -262 -407 -388 -407 -438 -514 -807 -299 -1023 120 -119 325
-164 625 -137 89 7 95 8 239 37 55 11 111 22 125 25 56 11 283 78 402 119 142
48 130 51 143 -35 8 -52 24 -126 67 -300 138 -565 357 -919 608 -983 307 -78
580 233 759 868 22 77 43 157 46 177 6 33 12 39 44 48 65 18 126 73 161 144
18 35 37 63 44 61 6 -2 47 -15 91 -29 98 -30 258 -73 305 -81 19 -3 51 -10 70
-15 19 -4 57 -11 83 -15 27 -3 58 -8 70 -11 44 -8 165 -17 247 -18 76 -1 110
2 217 19 17 2 57 14 90 26 291 109 352 382 163 725 -122 220 -378 507 -683
767 l-56 48 67 56 c245 207 491 473 618 668 61 95 88 146 120 232 34 89 38
116 38 223 0 84 -3 102 -29 154 -79 165 -259 249 -535 250 -86 0 -225 -10
-270 -19 -14 -3 -54 -10 -90 -16 -36 -5 -112 -21 -169 -35 l-103 -26 -27 26
c-101 97 -307 90 -394 -14 -30 -35 -25 -43 -57 105 -30 135 -89 351 -109 400
-5 11 -21 54 -36 95 -66 177 -170 365 -252 456 -129 141 -292 198 -437 154z
m150 -260 c64 -25 170 -166 238 -315 71 -157 166 -460 201 -641 21 -114 43
-239 41 -240 0 -1 -55 -25 -121 -54 -66 -29 -184 -83 -262 -121 l-143 -68
-162 78 c-90 43 -209 98 -265 122 -87 37 -102 46 -98 64 2 11 16 81 30 154 89
457 232 821 379 964 67 67 103 79 162 57z m-1726 -1140 c47 -5 96 -12 110 -15
13 -2 42 -7 65 -11 117 -17 596 -157 666 -195 19 -10 19 -8 4 -124 -3 -28 -7
-63 -19 -190 -3 -27 -8 -90 -11 -140 -3 -49 -8 -100 -10 -112 -3 -14 -43 -47
-112 -94 -60 -40 -165 -115 -235 -166 l-128 -93 -27 23 c-16 13 -64 55 -108
92 -108 92 -325 311 -411 415 -153 185 -236 339 -248 459 -5 49 20 93 65 116
78 41 233 54 399 35z m3724 -21 c34 -13 68 -36 80 -52 67 -90 -38 -321 -264
-582 -68 -78 -326 -332 -417 -408 l-92 -77 -134 97 c-74 54 -181 130 -238 169
-83 57 -105 77 -105 95 -1 28 -13 194 -19 259 -14 140 -27 246 -32 253 -7 12
13 8 63 -13 135 -58 317 19 370 155 15 40 21 46 68 59 28 8 62 17 76 19 14 3
63 12 110 21 46 9 107 19 135 22 27 4 52 8 53 9 2 2 68 3 145 1 124 -2 150 -5
201 -27z m-2461 -374 l128 -58 -42 -24 c-24 -13 -72 -40 -108 -60 -37 -19 -73
-41 -81 -48 -8 -7 -30 -20 -48 -29 l-32 -17 4 28 c3 15 8 60 11 98 4 39 8 79
10 90 1 11 3 35 4 54 1 22 5 32 14 28 7 -2 70 -31 140 -62z m988 38 c0 -16 2
-37 4 -48 2 -11 7 -49 10 -85 3 -36 8 -80 10 -97 2 -18 0 -33 -5 -33 -6 0 -54
26 -107 58 -54 31 -119 68 -145 82 -26 13 -45 26 -44 28 6 5 261 121 269 121
4 1 7 -11 8 -26z m-533 -261 c36 -18 88 -46 227 -124 39 -22 134 -78 211 -125
l141 -85 3 -57 c1 -31 2 -188 2 -349 0 -220 -3 -296 -12 -308 -20 -23 -415
-256 -558 -328 l-54 -27 -126 69 c-175 96 -203 112 -232 131 -14 9 -46 28 -72
42 -27 13 -48 27 -48 31 0 5 -4 8 -10 8 -5 0 -36 17 -68 38 l-58 37 -3 105
c-4 136 -4 334 -1 486 l3 121 151 91 c130 79 455 262 464 262 2 0 20 -8 40
-18z m-926 -619 c-2 -60 -5 -109 -6 -110 0 -1 -28 7 -60 18 -43 15 -75 19
-117 15 -33 -3 -59 -2 -59 2 0 4 32 30 71 57 65 46 174 123 174 125 0 0 -1
-48 -3 -107z m1921 2 c53 -38 97 -72 97 -75 0 -6 -183 -140 -217 -158 l-23
-13 0 171 0 171 23 -13 c13 -7 67 -44 120 -83z m-2367 -257 c4 -6 8 -52 8
-102 1 -81 4 -97 30 -144 72 -130 223 -182 360 -127 33 13 61 23 62 22 1 -1 5
-47 9 -102 3 -55 10 -140 16 -190 5 -49 12 -115 15 -145 3 -30 7 -67 10 -82 4
-19 0 -29 -13 -36 -34 -18 -317 -111 -433 -141 -258 -69 -380 -86 -580 -85
-119 0 -142 3 -194 25 -33 13 -68 36 -79 50 -61 83 25 291 217 529 69 86 307
327 411 417 39 33 86 74 105 91 39 35 46 37 56 20z m2777 -65 c119 -100 386
-367 464 -463 120 -149 214 -313 231 -405 18 -94 -6 -138 -94 -174 -50 -20
-79 -24 -189 -27 -71 -1 -155 1 -185 6 -127 19 -148 22 -215 36 -124 26 -256
63 -447 125 l-186 61 4 32 c6 50 13 117 20 181 3 33 7 76 9 95 2 19 7 80 10
135 8 113 11 136 22 145 5 4 73 52 153 108 80 55 181 127 225 160 44 33 81 61
83 61 2 1 45 -34 95 -76z m-1841 -549 l108 -61 -68 -31 c-122 -57 -205 -92
-208 -90 -1 2 -5 29 -8 62 -3 32 -8 86 -12 120 -3 33 -7 73 -9 89 l-2 27 46
-27 c25 -15 94 -55 153 -89z m993 74 c-2 -18 -7 -60 -10 -93 -14 -141 -16
-160 -19 -163 -2 -1 -65 25 -140 59 l-137 62 118 66 c65 37 129 74 143 84 38
26 51 22 45 -15z m-454 -357 c79 -37 172 -81 207 -96 34 -15 62 -30 62 -34 0
-3 -7 -26 -16 -51 -30 -85 -4 -210 57 -276 19 -20 19 -22 -16 -155 -41 -159
-43 -167 -88 -290 -76 -209 -179 -381 -265 -444 -48 -35 -82 -42 -126 -25 -26
10 -146 127 -146 142 0 5 -13 28 -28 51 -94 141 -229 546 -278 832 -2 17 -7
41 -10 55 -3 14 -8 36 -10 50 -2 14 -6 34 -9 45 -4 18 17 29 153 90 116 51
341 158 368 174 1 1 66 -30 145 -68z"/>
<path d="M3468 3924 c-26 -8 -61 -29 -79 -46 -30 -31 -36 -33 -104 -33 -62 0
-77 -4 -113 -29 -83 -57 -108 -174 -57 -262 14 -24 30 -44 35 -44 5 0 -7 -23
-26 -51 -34 -51 -38 -66 -35 -124 6 -116 108 -198 226 -182 39 6 47 4 60 -16
54 -84 212 -91 285 -14 17 19 36 27 60 27 145 2 241 168 168 291 l-25 42 25
49 c64 124 -4 263 -139 284 -34 5 -51 16 -78 46 -57 66 -122 86 -203 62z"/>
</g>
</svg>
