<?xml version="1.0" standalone="no"?>
<!DOCTYPE svg PUBLIC "-//W3C//DTD SVG 20010904//EN"
 "http://www.w3.org/TR/2001/REC-SVG-20010904/DTD/svg10.dtd">
<svg version="1.0" xmlns="http://www.w3.org/2000/svg"
 width="512.000000pt" height="512.000000pt" viewBox="0 0 512.000000 512.000000"
 preserveAspectRatio="xMidYMid meet">
<metadata>
Created by potrace 1.11, written by Peter Selinger 2001-2013
</metadata>
<g transform="translate(0.000000,512.000000) scale(0.100000,-0.100000)"
fill="#000000" stroke="none">
<path d="M2525 4550 c-100 -14 -210 -103 -285 -229 -38 -63 -116 -231 -126
-271 -2 -8 -19 -67 -38 -131 -19 -64 -46 -171 -61 -239 -14 -68 -27 -125 -29
-127 -1 -1 -40 10 -87 27 -166 57 -362 107 -504 128 -103 15 -296 8 -368 -13
-173 -50 -255 -189 -218 -366 38 -177 243 -448 536 -707 l70 -61 -70 -63
c-261 -232 -445 -460 -515 -638 -26 -66 -36 -180 -21 -236 24 -90 108 -165
222 -201 75 -24 311 -23 434 1 126 24 299 70 418 111 56 19 103 33 104 31 2
-1 12 -47 24 -102 11 -54 22 -107 24 -116 30 -139 104 -355 158 -463 69 -139
155 -241 238 -284 79 -41 183 -42 259 -1 149 79 280 311 376 668 25 96 28 102
59 112 45 15 91 59 112 107 l19 40 94 -28 c219 -66 384 -94 550 -94 118 0 159
6 234 35 185 71 238 268 130 483 -83 163 -262 374 -489 575 l-70 62 70 62
c212 187 408 415 480 558 107 213 81 387 -70 476 -81 47 -141 59 -300 58 -120
0 -175 -6 -287 -30 -40 -8 -81 -17 -91 -19 -10 -2 -27 -7 -37 -10 -11 -4 -35
6 -62 25 -66 46 -139 52 -213 15 -31 -15 -59 -33 -62 -41 -10 -28 -20 -13 -33
54 -17 82 -13 68 -44 177 -127 460 -315 696 -531 665z m101 -219 c87 -64 192
-292 258 -556 31 -122 34 -140 51 -240 4 -22 9 -43 11 -47 4 -6 -117 -68 -132
-68 -2 0 -60 -27 -128 -59 l-124 -60 -168 78 c-93 43 -180 81 -192 86 -22 6
-23 11 -18 57 4 27 11 71 17 96 6 26 13 58 15 72 42 223 152 498 239 597 61
71 116 85 171 44z m-1271 -815 c106 -12 286 -56 445 -109 132 -44 155 -55 155
-72 -1 -11 -4 -54 -9 -95 -13 -129 -16 -163 -21 -233 -2 -37 -6 -71 -9 -75 -2
-4 -31 -25 -63 -47 -32 -22 -106 -75 -165 -117 -59 -43 -111 -78 -114 -78 -12
0 -111 85 -213 184 -225 217 -365 419 -365 528 0 36 6 54 23 72 42 45 167 60
336 42z m2672 -5 c70 -17 98 -49 97 -109 -2 -119 -149 -324 -405 -567 -74 -71
-162 -145 -172 -145 -5 0 -251 173 -324 228 -19 14 -24 29 -28 92 -6 85 -13
166 -24 258 -4 34 -7 62 -5 62 1 0 19 -7 39 -16 103 -43 224 5 270 107 20 44
28 47 195 79 159 30 265 33 357 11z m-1754 -290 c37 -16 67 -32 67 -34 0 -7
-204 -122 -210 -119 -6 3 -5 10 4 107 11 105 12 108 44 90 15 -8 57 -28 95
-44z m708 12 c1 -44 5 -82 14 -136 3 -21 2 -37 -2 -34 -147 80 -213 121 -206
128 12 12 165 78 181 79 7 0 12 -15 13 -37z m-353 -188 c37 -20 138 -77 224
-128 l156 -92 4 -45 c7 -78 2 -465 -5 -478 -11 -16 -195 -127 -375 -224 l-73
-40 -127 70 c-70 39 -143 81 -162 94 -19 13 -52 32 -73 43 -21 11 -50 29 -64
41 l-26 21 -2 205 c0 113 2 229 5 259 l5 54 65 39 c76 47 373 216 378 216 2 0
33 -16 70 -35z m-721 -511 c-2 -3 -21 3 -42 11 -22 10 -55 15 -81 12 -25 -2
-43 0 -42 5 2 5 39 35 83 66 l80 57 3 -73 c2 -41 1 -76 -1 -78z m1421 72 c28
-21 52 -42 52 -46 0 -4 -38 -35 -85 -69 l-85 -61 0 131 0 131 33 -24 c17 -14
56 -42 85 -62z m-1736 -196 c-9 -39 -2 -122 13 -152 35 -67 77 -99 156 -117
35 -8 54 -6 99 9 30 10 56 17 59 15 3 -4 5 -27 15 -150 2 -33 8 -91 12 -130
13 -129 23 -114 -100 -157 -91 -32 -209 -68 -276 -83 -160 -36 -254 -49 -355
-48 -136 0 -200 27 -220 91 -15 49 46 189 131 300 79 104 245 277 348 364 22
18 51 43 65 55 28 24 58 26 53 3z m2007 -17 c105 -86 287 -268 363 -363 144
-180 197 -322 141 -382 -76 -81 -358 -66 -697 37 -187 57 -241 79 -240 101 1
10 4 44 7 74 13 119 24 253 26 302 1 23 18 38 104 97 56 39 131 93 167 120 36
27 69 50 74 50 5 1 30 -16 55 -36z m-1262 -457 c3 -3 -20 -17 -53 -32 -56 -24
-122 -54 -134 -60 -4 -2 -7 12 -8 29 -1 18 -6 65 -10 105 -5 40 -7 74 -5 76 4
3 198 -106 210 -118z m658 87 c-11 -79 -14 -109 -14 -140 -1 -18 -6 -33 -12
-33 -7 0 -54 19 -106 41 -88 39 -92 42 -71 54 23 12 77 42 158 89 25 14 46 26
47 26 1 0 0 -17 -2 -37z m-319 -259 c66 -31 134 -62 153 -70 26 -11 32 -18 26
-31 -12 -30 -18 -100 -11 -136 4 -19 18 -52 32 -72 l25 -38 -17 -71 c-82 -343
-237 -608 -340 -582 -114 29 -251 313 -329 677 -14 68 -30 141 -35 162 l-8 38
56 25 c101 44 195 88 262 121 36 17 66 32 66 32 1 1 55 -24 120 -55z"/>
<path d="M2530 2869 c-14 -6 -36 -21 -50 -34 -20 -19 -35 -23 -78 -23 -62 1
-96 -19 -128 -76 -30 -53 -15 -135 30 -168 5 -3 1 -14 -8 -24 -39 -39 -49
-110 -21 -163 24 -48 69 -73 128 -73 41 0 57 -5 77 -23 55 -52 127 -55 188 -8
20 15 51 28 70 30 62 7 116 60 123 123 4 35 -10 86 -26 100 -12 10 -11 18 6
49 26 50 27 101 3 142 -22 37 -70 69 -107 72 -14 1 -35 14 -47 30 -12 15 -30
32 -41 38 -29 15 -90 19 -119 8z"/>
</g>
</svg>
