<?xml version="1.0" encoding="UTF-8" standalone="no"?>
<!DOCTYPE svg PUBLIC "-//W3C//DTD SVG 1.1//EN" "http://www.w3.org/Graphics/SVG/1.1/DTD/svg11.dtd">
<svg width="100%" height="100%" viewBox="0 0 384 384" version="1.1" xmlns="http://www.w3.org/2000/svg" xmlns:xlink="http://www.w3.org/1999/xlink" xml:space="preserve" style="fill-rule:evenodd;clip-rule:evenodd;stroke-linejoin:round;stroke-miterlimit:1.41421;">
    <g transform="matrix(0.75,0,0,0.75,-1101.75,-119.25)">
        <g id="Element" transform="matrix(1.06224,0,0,0.92922,-160.477,-540.702)">
            <rect x="1534" y="753" width="482" height="551" style="fill:none;"/>
            <g transform="matrix(0.941406,0,0,1.07617,104.004,-78.3428)">
                <g transform="matrix(1.68674,9.99728e-17,-4.80406e-17,1.68994,75.8171,-671.467)">
                    <ellipse cx="1008.66" cy="1018.31" rx="10.146" ry="10.188" style="fill:rgb(72,96,105);"/>
                </g>
                <g transform="matrix(1.68674,9.99728e-17,-4.80406e-17,1.68994,92.9299,-678.88)">
                    <ellipse cx="1008.66" cy="1018.31" rx="10.146" ry="10.188" style="fill:rgb(106,139,152);"/>
                </g>
                <g transform="matrix(1.68674,9.99728e-17,-4.80406e-17,1.68994,75.8171,-691.632)">
                    <ellipse cx="1008.66" cy="1018.31" rx="10.146" ry="10.188" style="fill:rgb(93,124,135);"/>
                </g>
                <g transform="matrix(1.68674,9.99728e-17,-4.80406e-17,1.68994,54.3707,-678.88)">
                    <ellipse cx="1008.66" cy="1018.31" rx="10.146" ry="10.188" style="fill:rgb(106,139,152);"/>
                </g>
                <g transform="matrix(1.68674,9.99728e-17,-4.80406e-17,1.68994,54.3707,-705.902)">
                    <ellipse cx="1008.66" cy="1018.31" rx="10.146" ry="10.188" style="fill:rgb(72,96,105);"/>
                </g>
                <g transform="matrix(1.68674,9.99728e-17,-4.80406e-17,1.68994,75.8171,-713.314)">
                    <ellipse cx="1008.66" cy="1018.31" rx="10.146" ry="10.188" style="fill:rgb(106,139,152);"/>
                </g>
                <g transform="matrix(1.68674,9.99728e-17,-4.80406e-17,1.68994,92.9299,-703.319)">
                    <ellipse cx="1008.66" cy="1018.31" rx="10.146" ry="10.188" style="fill:rgb(72,96,105);"/>
                </g>
            </g>
        </g>
    </g>
</svg>
