<?xml version="1.0" encoding="UTF-8" standalone="no"?>
<!DOCTYPE svg PUBLIC "-//W3C//DTD SVG 1.1//EN" "http://www.w3.org/Graphics/SVG/1.1/DTD/svg11.dtd">
<svg width="100%" height="100%" viewBox="0 0 186 321" version="1.1" xmlns="http://www.w3.org/2000/svg" xmlns:xlink="http://www.w3.org/1999/xlink" xml:space="preserve" style="fill-rule:evenodd;clip-rule:evenodd;stroke-linecap:round;stroke-linejoin:round;stroke-miterlimit:1.5;">
    <g transform="matrix(0.75,0,0,0.75,-1101.75,-119.25)">
        <g id="Element" transform="matrix(0.514523,0,0,0.77677,679.722,-425.907)">
            <rect x="1534" y="753" width="482" height="551" style="fill:none;"/>
            <g transform="matrix(0.958179,3.80661e-17,-2.72384e-17,0.64225,624.132,293.229)">
                <g>
                    <g transform="matrix(1.36728,-4.62233e-31,-2.26043e-31,1.36988,-241.214,-331.418)">
                        <ellipse cx="1008.66" cy="1018.31" rx="10.146" ry="10.188" style="fill:rgb(72,96,105);"/>
                    </g>
                    <g transform="matrix(1.36728,-4.62233e-31,-2.26043e-31,1.36988,-227.342,-337.427)">
                        <ellipse cx="1008.66" cy="1018.31" rx="10.146" ry="10.188" style="fill:rgb(106,139,152);"/>
                    </g>
                    <g transform="matrix(1.36728,-4.62233e-31,-2.26043e-31,1.36988,-241.214,-347.764)">
                        <ellipse cx="1008.66" cy="1018.31" rx="10.146" ry="10.188" style="fill:rgb(93,124,135);"/>
                    </g>
                    <g transform="matrix(1.36728,-4.62233e-31,-2.26043e-31,1.36988,-258.599,-337.427)">
                        <ellipse cx="1008.66" cy="1018.31" rx="10.146" ry="10.188" style="fill:rgb(106,139,152);"/>
                    </g>
                    <g transform="matrix(1.36728,-4.62233e-31,-2.26043e-31,1.36988,-258.599,-359.331)">
                        <ellipse cx="1008.66" cy="1018.31" rx="10.146" ry="10.188" style="fill:rgb(72,96,105);"/>
                    </g>
                    <g transform="matrix(1.36728,-4.62233e-31,-2.26043e-31,1.36988,-241.214,-365.34)">
                        <ellipse cx="1008.66" cy="1018.31" rx="10.146" ry="10.188" style="fill:rgb(106,139,152);"/>
                    </g>
                    <g transform="matrix(1.36728,-4.62233e-31,-2.26043e-31,1.36988,-227.342,-357.238)">
                        <ellipse cx="1008.66" cy="1018.31" rx="10.146" ry="10.188" style="fill:rgb(72,96,105);"/>
                    </g>
                </g>
                <g transform="matrix(0.507628,0.879238,-0.939692,0.542532,1535.79,-548.698)">
                    <ellipse cx="1164" cy="1054.04" rx="53" ry="169.956" style="fill:none;stroke:rgb(38,50,55);stroke-width:17.95px;"/>
                </g>
                <g transform="matrix(2.02065,0,0,2.02449,-831.5,-1107.19)">
                    <ellipse cx="1008.66" cy="1018.31" rx="10.146" ry="10.188" style="fill:rgb(26,35,38);"/>
                </g>
                <g transform="matrix(0.507628,-0.879238,0.939692,0.542532,-445.165,1498.17)">
                    <ellipse cx="1164" cy="1054.04" rx="53" ry="169.956" style="fill:none;stroke:rgb(38,50,55);stroke-width:17.95px;"/>
                </g>
                <g transform="matrix(2.02065,0,0,2.02449,-976.274,-994.353)">
                    <ellipse cx="1008.66" cy="1018.31" rx="10.146" ry="10.188" style="fill:rgb(26,35,38);"/>
                </g>
                <g transform="matrix(1.01526,-1.66533e-16,1.16573e-15,1.08506,-45.5671,-97.1175)">
                    <ellipse cx="1164" cy="1054.04" rx="53" ry="169.956" style="fill:none;stroke:rgb(38,50,55);stroke-width:17.95px;"/>
                </g>
                <g transform="matrix(2.02065,0,0,2.02449,-854.56,-919.222)">
                    <ellipse cx="1008.66" cy="1018.31" rx="10.146" ry="10.188" style="fill:rgb(26,35,38);"/>
                </g>
            </g>
            <g transform="matrix(1.94355,0,0,1.28738,-1372.83,622.215)">
                <text x="1537.52px" y="410.828px" style="font-family:'Roboto-Medium', 'Roboto';font-weight:500;font-size:45.333px;fill:none;">emental</text>
                <text x="1500px" y="410.828px" style="font-family:'Roboto-Bold', 'Roboto';font-weight:700;font-size:45.333px;fill:rgb(38,50,55);">El</text>
                <text x="1537.52px" y="410.828px" style="font-family:'Roboto-Medium', 'Roboto';font-weight:500;font-size:45.333px;fill:rgb(38,50,55);fill-opacity:0.870588;">emental</text>
                <text x="1500px" y="456.161px" style="font-family:'Roboto-Bold', 'Roboto';font-weight:700;font-size:45.333px;fill:rgb(38,50,55);fill-opacity:0.541176;">P<tspan x="1528.95px " y="456.161px ">o</tspan></text>
                <text x="1554.59px" y="456.161px" style="font-family:'Roboto-Medium', 'Roboto';font-weight:500;font-size:45.333px;fill:rgb(38,50,55);fill-opacity:0.870588;">r<tspan x="1571.63px " y="456.161px ">t</tspan>folio</text>
            </g>
        </g>
    </g>
</svg>
