<?xml version="1.0" encoding="UTF-8" standalone="no"?>
<!DOCTYPE svg PUBLIC "-//W3C//DTD SVG 1.1//EN" "http://www.w3.org/Graphics/SVG/1.1/DTD/svg11.dtd">
<svg width="100%" height="100%" viewBox="0 0 270 480" version="1.1" xmlns="http://www.w3.org/2000/svg" xmlns:xlink="http://www.w3.org/1999/xlink" xml:space="preserve" style="fill-rule:evenodd;clip-rule:evenodd;stroke-linecap:round;stroke-linejoin:round;stroke-miterlimit:1.5;">
    <g transform="matrix(0.75,0,0,0.75,-8.52651e-14,-2.13163e-14)">
        <g id="Artboard1" transform="matrix(0.622837,0,0,0.9538,429.758,133.532)">
            <rect x="-690" y="-140" width="578" height="671" style="fill:none;"/>
            <clipPath id="_clip1">
                <rect x="-690" y="-140" width="578" height="671"/>
            </clipPath>
            <g clip-path="url(#_clip1)">
                <g transform="matrix(1.08759e-16,1.15985,-0.861401,3.44432e-17,-235.416,661.953)">
                    <clipPath id="_clip2">
                        <rect x="-690.521" y="-140" width="578.521" height="671"/>
                    </clipPath>
                    <g clip-path="url(#_clip2)">
                        <g id="Compound" transform="matrix(1.8527,1.46861,-0.344795,1.8527,414.995,470.252)">
                            <g transform="matrix(0.1544,0,0,0.318654,-608.396,33.145)">
                                <path d="M549.5,328C579.079,343.373 608.433,360.321 636.536,378.25C638.012,411.552 638.012,445.448 636.536,478.75C608.433,496.679 579.079,513.627 549.5,529C519.921,513.627 490.567,496.679 462.464,478.75C460.988,445.448 460.988,411.552 462.464,378.25C490.567,360.321 519.921,343.373 549.5,328Z" style="fill:none;stroke:rgb(219,219,219);stroke-width:16px;"/>
                            </g>
                            <g transform="matrix(8.02261e-18,0.2704,-0.135415,1.71128e-17,-439.565,21.0699)">
                                <path d="M549.5,328C582.321,349.245 614.734,372.795 645.081,397.444C635.018,435.223 622.638,473.327 608.572,509.806C569.533,511.91 529.467,511.91 490.428,509.806C476.362,473.327 463.982,435.223 453.919,397.444C484.266,372.795 516.679,349.245 549.5,328Z" style="fill:none;stroke:rgb(219,219,219);stroke-width:16px;"/>
                            </g>
                            <g transform="matrix(8.02261e-18,-0.2704,0.144401,1.82484e-17,-624.775,366.31)">
                                <path d="M549.5,328C582.321,349.245 614.734,372.795 645.081,397.444C635.018,435.223 622.638,473.327 608.572,509.806C569.533,511.91 529.467,511.91 490.428,509.806C476.362,473.327 463.982,435.223 453.919,397.444C484.266,372.795 516.679,349.245 549.5,328Z" style="fill:none;stroke:rgb(219,219,219);stroke-width:16px;"/>
                            </g>
                            <g transform="matrix(0.26071,-0.310648,0.150521,0.538058,-768.984,-34.2198)">
                                <path d="M394.096,649.124L394.152,648.903L403.46,616.274L403.529,616.057L403.61,615.843L403.704,615.635L403.809,615.432L403.925,615.236L404.053,615.046L404.191,614.865L404.339,614.691L404.497,614.526L404.664,614.37L404.84,614.224L405.024,614.089L405.215,613.964L405.413,613.85L405.617,613.748L405.827,613.657L406.042,613.579L406.26,613.513L406.483,613.459L406.707,613.419L406.934,613.391L407.162,613.376L407.391,613.374L407.619,613.386L407.846,613.41L408.072,613.447L408.295,613.497L408.514,613.56L408.73,613.635L408.941,613.722L409.147,613.821L409.347,613.932L409.54,614.054L409.726,614.187L409.904,614.33L410.074,614.483L410.235,614.646L410.386,614.817L410.527,614.997L410.657,615.184L410.777,615.379L410.885,615.58L410.981,615.787L411.066,615.999L411.138,616.216L411.198,616.436L411.245,616.659L411.28,616.885L411.301,617.112L411.309,617.341L411.305,617.569L411.287,617.797L411.256,618.023L411.213,618.247L411.156,618.468L401.848,651.097L401.779,651.315L401.698,651.528L401.605,651.736L401.5,651.939L401.383,652.135L401.256,652.325L401.117,652.507L400.969,652.68L400.811,652.845L400.644,653.001L400.468,653.147L400.285,653.283L400.093,653.408L399.895,653.521L399.691,653.624L399.481,653.714L399.267,653.792L399.048,653.858L398.826,653.912L398.601,653.953L398.374,653.98L398.146,653.995L397.918,653.997L397.689,653.986L397.462,653.961L397.237,653.924L397.014,653.874L396.794,653.811L396.578,653.736L396.367,653.649L396.161,653.55L395.961,653.439L395.768,653.317L395.582,653.184L395.404,653.041L395.234,652.888L395.074,652.726L394.923,652.554L394.782,652.375L394.651,652.187L394.532,651.992L394.424,651.791L394.327,651.584L394.242,651.372L394.17,651.156L394.11,650.935L394.063,650.712L394.029,650.486L394.007,650.259L393.999,650.031L394.004,649.802L394.021,649.575L394.052,649.349L394.096,649.124Z" style="fill:rgb(219,219,219);"/>
                            </g>
                            <g transform="matrix(0.301042,0,0,0.621296,-690,-140)">
                                <path d="M494.827,677.105L494.759,676.834L494.71,676.559L494.681,676.281L494.672,676.002L494.672,622.529L494.681,622.25L494.71,621.972L494.759,621.697L494.827,621.426L494.913,621.161L495.018,620.902L495.14,620.651L495.28,620.409L495.436,620.177L495.608,619.957L495.795,619.75L495.996,619.556L496.21,619.376L496.436,619.212L496.673,619.064L496.919,618.932L497.175,618.819L497.437,618.723L497.706,618.646L497.979,618.588L498.256,618.549L498.534,618.529L498.814,618.529L499.092,618.548L499.369,618.587L499.642,618.645L499.911,618.722L500.173,618.817L500.429,618.93L500.675,619.061L500.912,619.209L501.138,619.373L501.352,619.552L501.553,619.746L501.74,619.954L501.912,620.173L502.068,620.405L502.208,620.647L502.331,620.897L502.435,621.156L502.522,621.422L502.589,621.692L502.638,621.967L502.667,622.245L502.677,622.524L502.677,675.998L502.667,676.277L502.638,676.554L502.589,676.829L502.522,677.1L502.435,677.366L502.331,677.625L502.208,677.876L502.068,678.118L501.912,678.349L501.74,678.569L501.553,678.777L501.352,678.971L501.138,679.15L500.912,679.315L500.675,679.463L500.429,679.594L500.173,679.708L499.911,679.803L499.642,679.88L499.369,679.939L499.092,679.978L498.814,679.997L498.534,679.998L498.256,679.978L497.979,679.94L497.706,679.882L497.437,679.805L497.175,679.71L496.919,679.596L496.673,679.465L496.436,679.317L496.21,679.153L495.996,678.974L495.795,678.78L495.608,678.573L495.436,678.353L495.28,678.122L495.14,677.88L495.018,677.629L494.913,677.37L494.827,677.105Z" style="fill:rgb(219,219,219);"/>
                            </g>
                            <g transform="matrix(0.301042,0,0,0.621296,-690,-140)">
                                <path d="M512.869,677.105L512.802,676.834L512.753,676.559L512.724,676.281L512.714,676.002L512.714,622.529L512.724,622.25L512.753,621.972L512.802,621.697L512.869,621.426L512.955,621.161L513.06,620.902L513.183,620.651L513.322,620.409L513.478,620.177L513.65,619.957L513.837,619.75L514.038,619.556L514.252,619.376L514.478,619.212L514.715,619.064L514.962,618.932L515.217,618.819L515.48,618.723L515.748,618.646L516.022,618.588L516.298,618.549L516.577,618.529L516.856,618.529L517.135,618.548L517.412,618.587L517.685,618.645L517.953,618.722L518.216,618.817L518.471,618.93L518.718,619.061L518.955,619.209L519.181,619.373L519.395,619.552L519.596,619.746L519.783,619.954L519.955,620.173L520.111,620.405L520.251,620.647L520.373,620.897L520.478,621.156L520.564,621.422L520.632,621.693L520.68,621.967L520.709,622.245L520.719,622.524L520.719,675.998L520.709,676.277L520.68,676.554L520.632,676.829L520.564,677.1L520.478,677.366L520.373,677.625L520.251,677.876L520.111,678.118L519.955,678.349L519.783,678.569L519.596,678.777L519.395,678.971L519.181,679.15L518.955,679.315L518.718,679.463L518.471,679.594L518.216,679.708L517.953,679.803L517.685,679.88L517.412,679.939L517.135,679.978L516.856,679.997L516.577,679.998L516.298,679.978L516.022,679.94L515.748,679.882L515.48,679.805L515.217,679.71L514.962,679.596L514.715,679.465L514.478,679.317L514.252,679.153L514.038,678.974L513.837,678.78L513.65,678.573L513.478,678.353L513.322,678.122L513.183,677.88L513.06,677.629L512.955,677.37L512.869,677.105Z" style="fill:rgb(219,219,219);"/>
                            </g>
                            <g transform="matrix(0.301042,0,0,0.621296,-690,-135.421)">
                                <path d="M649.322,450.715L649.259,450.508L649.206,450.298L649.165,450.085L649.136,449.871L649.118,449.655L649.112,449.438L649.118,449.222L649.135,449.006L649.164,448.791L649.205,448.578L649.257,448.368L649.32,448.161L649.395,447.958L664.281,410.525L664.366,410.326L664.462,410.131L664.569,409.943L664.685,409.76L664.812,409.584L664.947,409.415L665.092,409.253L665.245,409.1L665.406,408.955L665.575,408.819L665.751,408.693L665.934,408.576L666.122,408.469L666.316,408.372L666.515,408.286L666.719,408.211L666.926,408.147L667.136,408.095L667.349,408.054L667.564,408.024L667.78,408.006L667.997,408L668.213,408.006L668.43,408.023L668.644,408.052L668.857,408.092L669.068,408.144L669.275,408.208L669.478,408.282L669.678,408.367L669.872,408.463L670.061,408.57L670.243,408.686L670.42,408.812L670.589,408.948L670.75,409.092L670.904,409.245L671.048,409.406L671.184,409.575L671.311,409.751L671.428,409.933L671.535,410.121L671.631,410.315L671.717,410.514L671.792,410.717L671.856,410.924L671.908,411.135L671.949,411.347L671.979,411.562L671.997,411.778L672.003,411.994L671.997,412.211L671.979,412.427L671.95,412.642L671.91,412.854L671.858,413.065L671.794,413.272L671.719,413.475L656.834,450.908L656.748,451.107L656.652,451.301L656.546,451.49L656.429,451.673L656.303,451.849L656.167,452.018L656.022,452.179L655.869,452.333L655.708,452.478L655.539,452.614L655.363,452.74L655.181,452.857L654.992,452.964L654.798,453.061L654.599,453.146L654.396,453.221L654.188,453.285L653.978,453.338L653.765,453.379L653.55,453.409L653.334,453.426L653.118,453.433L652.901,453.427L652.685,453.41L652.47,453.381L652.257,453.34L652.047,453.288L651.839,453.225L651.636,453.151L651.437,453.065L651.242,452.969L651.054,452.863L650.871,452.747L650.695,452.62L650.526,452.485L650.364,452.341L650.211,452.188L650.066,452.027L649.93,451.858L649.803,451.682L649.686,451.5L649.58,451.311L649.483,451.117L649.397,450.919L649.322,450.715Z" style="fill:rgb(219,219,219);"/>
                            </g>
                            <g transform="matrix(0.1544,0,0,0.318654,-622.005,81.1821)">
                                <path d="M549.5,328C579.079,343.373 608.433,360.321 636.536,378.25C638.012,411.552 638.012,445.448 636.536,478.75C608.433,496.679 579.079,513.627 549.5,529C519.921,513.627 490.567,496.679 462.464,478.75C460.988,445.448 460.988,411.552 462.464,378.25C490.567,360.321 519.921,343.373 549.5,328Z" style="fill:none;stroke:rgb(219,219,219);stroke-width:16px;"/>
                            </g>
                            <g transform="matrix(0.301042,0,0,0.621296,-690,-140)">
                                <path d="M680.501,499.55L680.441,499.311L680.396,499.069L680.366,498.824L680.351,498.578L680.351,498.332L680.366,498.086L680.397,497.841L680.442,497.599L680.503,497.36L680.577,497.126L680.667,496.896L680.77,496.672L680.887,496.455L681.017,496.246L681.159,496.045L681.314,495.853L681.48,495.671L681.657,495.499L681.844,495.339L682.041,495.19L682.247,495.054L682.46,494.931L682.681,494.821L682.908,494.725L683.141,494.643L683.378,494.576L683.619,494.523L683.862,494.485L684.108,494.463L684.354,494.455L726.002,494.455L726.249,494.463L726.494,494.485L726.738,494.523L726.979,494.576L727.216,494.643L727.448,494.725L727.675,494.821L727.896,494.931L728.109,495.054L728.315,495.19L728.511,495.339L728.698,495.499L728.875,495.671L729.041,495.853L729.196,496.045L729.338,496.246L729.468,496.455L729.584,496.672L729.687,496.896L729.776,497.126L729.85,497.36L729.91,497.599L729.956,497.841L729.986,498.086L730.001,498.332L730.001,498.578L729.985,498.824L729.955,499.069L729.909,499.311L729.849,499.55L729.774,499.784L729.685,500.014L729.582,500.238L729.465,500.455L729.335,500.664L729.193,500.865L729.038,501.057L728.872,501.239L728.695,501.411L728.507,501.571L728.311,501.72L728.105,501.856L727.891,501.979L727.671,502.089L727.444,502.185L727.211,502.267L726.974,502.334L726.733,502.387L726.489,502.425L726.244,502.447L725.998,502.455L684.349,502.455L684.103,502.447L683.857,502.425L683.614,502.387L683.373,502.334L683.136,502.267L682.904,502.185L682.677,502.089L682.456,501.979L682.243,501.856L682.037,501.72L681.841,501.571L681.653,501.411L681.477,501.239L681.311,501.057L681.156,500.865L681.014,500.664L680.884,500.455L680.768,500.238L680.665,500.014L680.576,499.784L680.501,499.55Z" style="fill:rgb(219,219,219);"/>
                            </g>
                            <g transform="matrix(0.301042,0,0,0.621296,-690,-140)">
                                <path d="M538.55,453.702L538.473,453.413L538.417,453.119L538.384,452.822L538.373,452.523L538.373,392.002L538.384,391.704L538.417,391.406L538.473,391.112L538.55,390.823L538.649,390.541L538.769,390.267L538.909,390.002L539.068,389.749L539.246,389.508L539.441,389.281L539.653,389.07L539.88,388.874L540.12,388.697L540.374,388.537L540.638,388.397L540.913,388.278L541.195,388.179L541.484,388.101L541.779,388.045L542.076,388.012L542.375,388L542.674,388.011L542.972,388.044L543.266,388.1L543.555,388.177L543.837,388.276L544.112,388.395L544.376,388.535L544.63,388.694L544.871,388.871L545.097,389.066L545.309,389.278L545.504,389.504L545.682,389.745L545.841,389.998L545.981,390.262L546.101,390.536L546.2,390.819L546.277,391.108L546.333,391.401L546.366,391.699L546.378,391.998L546.378,452.518L546.366,452.817L546.333,453.115L546.277,453.409L546.2,453.698L546.101,453.98L545.981,454.254L545.841,454.519L545.682,454.772L545.504,455.013L545.309,455.24L545.097,455.451L544.871,455.647L544.63,455.824L544.376,455.984L544.112,456.124L543.837,456.243L543.555,456.342L543.266,456.42L542.972,456.476L542.674,456.509L542.375,456.521L542.076,456.51L541.779,456.476L541.484,456.421L541.195,456.344L540.913,456.245L540.638,456.126L540.374,455.986L540.12,455.827L539.88,455.65L539.653,455.455L539.441,455.243L539.246,455.017L539.068,454.776L538.909,454.523L538.769,454.259L538.649,453.984L538.55,453.702Z" style="fill:rgb(219,219,219);"/>
                            </g>
                            <g transform="matrix(0.301042,0,0,0.621296,-690,-140)">
                                <path d="M559.605,453.702L559.528,453.413L559.472,453.119L559.438,452.822L559.427,452.523L559.427,392.002L559.438,391.704L559.472,391.406L559.528,391.112L559.605,390.823L559.704,390.541L559.824,390.267L559.963,390.002L560.123,389.749L560.3,389.508L560.496,389.281L560.707,389.07L560.934,388.874L561.175,388.697L561.429,388.537L561.693,388.397L561.967,388.278L562.25,388.179L562.539,388.101L562.833,388.045L563.131,388.012L563.43,388L563.729,388.011L564.026,388.044L564.32,388.1L564.61,388.177L564.892,388.276L565.166,388.395L565.431,388.535L565.685,388.694L565.925,388.871L566.152,389.066L566.364,389.278L566.559,389.504L566.737,389.745L566.896,389.998L567.036,390.262L567.156,390.536L567.255,390.819L567.332,391.108L567.388,391.401L567.421,391.699L567.432,391.998L567.432,452.518L567.421,452.817L567.388,453.115L567.332,453.409L567.255,453.698L567.156,453.98L567.036,454.254L566.896,454.519L566.737,454.772L566.559,455.013L566.364,455.24L566.152,455.451L565.925,455.647L565.685,455.824L565.431,455.984L565.166,456.124L564.892,456.243L564.61,456.342L564.32,456.42L564.026,456.476L563.729,456.509L563.43,456.521L563.131,456.51L562.833,456.476L562.539,456.421L562.25,456.344L561.967,456.245L561.693,456.126L561.429,455.986L561.175,455.827L560.934,455.65L560.707,455.455L560.496,455.243L560.3,455.017L560.123,454.776L559.963,454.523L559.824,454.259L559.704,453.984L559.605,453.702Z" style="fill:rgb(219,219,219);"/>
                            </g>
                            <g transform="matrix(0.301042,0,0,0.621296,-690,-140)">
                                <path d="M549.645,602.852L549.583,602.659L549.532,602.463L549.491,602.265L549.459,602.064L549.438,601.863L549.427,601.66L549.427,601.458L549.436,601.255L549.456,601.054L549.486,600.853L549.527,600.655L549.577,600.458L549.637,600.265L549.707,600.074L549.786,599.888L549.875,599.706L549.973,599.528L550.08,599.356L550.195,599.189L550.319,599.028L550.45,598.874L550.59,598.727L550.736,598.587L550.89,598.454L551.05,598.329L551.216,598.213L551.388,598.105L551.565,598.006L551.746,597.916L551.933,597.836L552.123,597.765L552.316,597.703L552.512,597.652L552.711,597.61L552.911,597.579L553.113,597.558L553.315,597.547L553.518,597.546L553.72,597.556L553.922,597.575L554.123,597.605L554.322,597.646L554.518,597.696L554.712,597.756L554.902,597.825L555.089,597.905L555.271,597.993L585.843,613.819L586.02,613.917L586.193,614.024L586.36,614.139L586.52,614.262L586.675,614.394L586.822,614.533L586.962,614.679L587.095,614.833L587.219,614.992L587.336,615.158L587.443,615.33L587.542,615.507L587.632,615.688L587.713,615.874L587.784,616.064L587.845,616.257L587.896,616.453L587.938,616.652L587.969,616.852L587.99,617.053L588.001,617.256L588.002,617.458L587.992,617.661L587.972,617.863L587.942,618.063L587.902,618.262L587.851,618.458L587.791,618.652L587.721,618.842L587.642,619.028L587.553,619.211L587.455,619.388L587.348,619.561L587.233,619.727L587.109,619.888L586.978,620.042L586.839,620.19L586.692,620.33L586.538,620.462L586.378,620.587L586.212,620.703L586.041,620.811L585.864,620.91L585.682,621L585.496,621.081L585.306,621.152L585.112,621.213L584.916,621.264L584.718,621.306L584.517,621.337L584.316,621.359L584.113,621.37L583.91,621.37L583.708,621.361L583.506,621.341L583.305,621.311L583.107,621.271L582.91,621.221L582.717,621.161L582.526,621.091L582.34,621.012L582.157,620.923L551.586,605.097L551.408,604.999L551.236,604.893L551.069,604.777L550.908,604.654L550.754,604.522L550.606,604.383L550.466,604.237L550.334,604.084L550.209,603.924L550.093,603.758L549.985,603.586L549.886,603.409L549.796,603.228L549.716,603.042L549.645,602.852Z" style="fill:rgb(219,219,219);"/>
                            </g>
                        </g>
                        <g transform="matrix(1.31877,-3.06094,0.718639,1.31877,-168.703,-1604.49)">
                            <g transform="matrix(0.0772,-0.275962,0.133714,0.159327,-597.612,465.267)">
                                <path d="M549.5,328C579.079,343.373 608.433,360.321 636.536,378.25C638.012,411.552 638.012,445.448 636.536,478.75C608.433,496.679 579.079,513.627 549.5,529C519.921,513.627 490.567,496.679 462.464,478.75C460.988,445.448 460.988,411.552 462.464,378.25C490.567,360.321 519.921,343.373 549.5,328Z" style="fill:none;stroke:rgb(219,219,219);stroke-width:16px;"/>
                            </g>
                            <g transform="matrix(0.0772,-0.275962,0.133714,0.159327,-561.645,420.557)">
                                <path d="M549.5,328C579.079,343.373 608.433,360.321 636.536,378.25C638.012,411.552 638.012,445.448 636.536,478.75C608.433,496.679 579.079,513.627 549.5,529C519.921,513.627 490.567,496.679 462.464,478.75C460.988,445.448 460.988,411.552 462.464,378.25C490.567,360.321 519.921,343.373 549.5,328Z" style="fill:none;stroke:rgb(219,219,219);stroke-width:16px;"/>
                            </g>
                            <g transform="matrix(0.0772,-0.275962,0.133714,0.159327,-584.259,513.609)">
                                <path d="M549.5,328C579.079,343.373 608.433,360.321 636.536,378.25C638.012,411.552 638.012,445.448 636.536,478.75C608.433,496.679 579.079,513.627 549.5,529C519.921,513.627 490.567,496.679 462.464,478.75C460.988,445.448 460.988,411.552 462.464,378.25C490.567,360.321 519.921,343.373 549.5,328Z" style="fill:none;stroke:rgb(219,219,219);stroke-width:16px;"/>
                            </g>
                            <g transform="matrix(0.150521,-0.538058,0.26071,0.310648,-746.838,568.693)">
                                <path d="M554.843,597.8L555.058,597.889L555.267,597.99L585.839,613.816L586.043,613.929L586.239,614.054L586.428,614.189L586.609,614.336L586.781,614.493L586.943,614.659L587.096,614.835L587.238,615.019L587.369,615.212L587.488,615.411L587.596,615.618L587.692,615.83L587.775,616.047L587.846,616.269L587.903,616.495L587.947,616.723L587.978,616.954L587.995,617.186L587.999,617.419L587.99,617.651L587.967,617.883L587.93,618.113L587.88,618.34L587.817,618.565L587.741,618.785L587.653,619L587.552,619.21L587.439,619.414L587.314,619.61L587.178,619.799L587.032,619.98L586.875,620.152L586.708,620.315L586.533,620.468L586.348,620.61L586.156,620.741L585.957,620.861L585.751,620.969L585.539,621.065L585.321,621.148L585.1,621.219L584.874,621.277L584.646,621.321L584.415,621.352L584.183,621.37L583.95,621.374L583.718,621.364L583.486,621.341L583.257,621.305L583.029,621.255L582.805,621.192L582.586,621.116L582.37,621.027L582.161,620.927L551.589,605.1L551.386,604.987L551.189,604.863L551,604.727L550.82,604.58L550.648,604.424L550.485,604.257L550.333,604.081L550.191,603.897L550.06,603.705L549.94,603.505L549.832,603.299L549.736,603.087L549.653,602.869L549.583,602.647L549.525,602.422L549.481,602.193L549.45,601.962L549.433,601.73L549.429,601.498L549.439,601.265L549.462,601.033L549.498,600.803L549.548,600.576L549.611,600.352L549.687,600.132L549.776,599.916L549.877,599.706L549.99,599.503L550.114,599.306L550.25,599.117L550.396,598.936L550.553,598.764L550.72,598.601L550.896,598.449L551.08,598.306L551.272,598.175L551.472,598.055L551.678,597.947L551.89,597.851L552.107,597.768L552.329,597.697L552.554,597.64L552.783,597.595L553.013,597.564L553.245,597.547L553.478,597.543L553.71,597.552L553.942,597.575L554.172,597.612L554.399,597.662L554.623,597.725L554.843,597.8Z" style="fill:rgb(219,219,219);"/>
                            </g>
                            <g transform="matrix(0.300527,0.0363242,-0.0176005,0.620234,-673.924,-42.9283)">
                                <path d="M532.178,590.169L532.405,589.996L532.643,589.839L532.892,589.7L533.151,589.579L533.417,589.477L533.69,589.394L533.969,589.331L534.251,589.288L534.535,589.265L534.821,589.263L535.106,589.28L535.388,589.318L535.668,589.377L535.942,589.455L536.211,589.552L536.472,589.668L585.754,613.78L586.006,613.915L586.248,614.067L586.478,614.236L586.696,614.421L586.899,614.621L587.088,614.835L587.262,615.062L587.418,615.301L587.558,615.55L587.679,615.808L587.781,616.075L587.864,616.348L587.928,616.626L587.971,616.909L587.994,617.193L587.997,617.478L587.979,617.763L587.941,618.046L587.884,618.326L587.806,618.6L587.709,618.868L587.593,619.129L587.458,619.381L587.306,619.622L587.138,619.852L586.953,620.07L586.753,620.273L586.539,620.462L586.312,620.635L586.074,620.791L585.825,620.931L585.566,621.051L585.3,621.153L585.027,621.236L584.748,621.299L584.466,621.343L584.182,621.366L583.896,621.368L583.612,621.35L583.329,621.312L583.049,621.254L582.775,621.176L582.506,621.079L582.245,620.962L532.963,596.85L532.711,596.716L532.469,596.564L532.239,596.395L532.022,596.21L531.818,596.01L531.629,595.796L531.455,595.569L531.299,595.33L531.16,595.081L531.038,594.822L530.936,594.556L530.853,594.283L530.79,594.004L530.746,593.722L530.723,593.438L530.72,593.152L530.738,592.867L530.776,592.584L530.834,592.305L530.911,592.03L531.008,591.762L531.124,591.502L531.259,591.25L531.411,591.008L531.58,590.778L531.764,590.561L531.964,590.357L532.178,590.169Z" style="fill:rgb(219,219,219);"/>
                            </g>
                            <g transform="matrix(0.300527,0.0363242,-0.0176005,0.620234,-676.075,-32.3496)">
                                <path d="M531.958,590.73L532.183,590.555L532.42,590.396L532.667,590.254L532.925,590.131L533.19,590.026L533.462,589.94L533.74,589.874L534.021,589.828L534.306,589.802L534.591,589.797L534.876,589.812L535.159,589.847L535.439,589.902L535.715,589.977L535.984,590.072L536.246,590.186L585.717,613.762L585.971,613.894L586.214,614.044L586.446,614.211L586.665,614.393L586.871,614.591L587.062,614.803L587.238,615.028L587.397,615.266L587.539,615.513L587.662,615.771L587.767,616.036L587.853,616.308L587.92,616.586L587.966,616.868L587.992,617.152L587.998,617.437L587.983,617.722L587.948,618.006L587.893,618.286L587.818,618.561L587.724,618.83L587.611,619.092L587.479,619.345L587.329,619.588L587.163,619.82L586.98,620.039L586.783,620.245L586.571,620.436L586.346,620.611L586.109,620.77L585.861,620.912L585.604,621.035L585.339,621.14L585.066,621.226L584.789,621.292L584.507,621.338L584.223,621.363L583.938,621.369L583.653,621.354L583.369,621.319L583.089,621.264L582.814,621.188L582.545,621.094L582.283,620.98L532.811,597.403L532.558,597.272L532.315,597.122L532.083,596.955L531.863,596.773L531.658,596.575L531.466,596.363L531.291,596.137L531.132,595.9L530.99,595.652L530.866,595.395L530.761,595.13L530.675,594.857L530.609,594.58L530.563,594.298L530.537,594.014L530.531,593.729L530.545,593.444L530.58,593.16L530.635,592.88L530.71,592.605L530.805,592.336L530.918,592.074L531.05,591.821L531.199,591.578L531.366,591.346L531.548,591.127L531.746,590.921L531.958,590.73Z" style="fill:rgb(219,219,219);"/>
                            </g>
                            <g transform="matrix(0.23967,-0.375959,0.182166,0.494635,-713.563,326.039)">
                                <path d="M553.42,597.544L553.633,597.549L553.845,597.565L554.056,597.593L554.266,597.632L554.472,597.683L554.676,597.744L554.877,597.816L555.073,597.898L555.265,597.991L585.836,613.817L586.023,613.92L586.203,614.033L586.378,614.155L586.545,614.286L586.706,614.426L586.859,614.574L587.003,614.731L587.14,614.894L587.267,615.065L587.385,615.242L587.493,615.426L587.592,615.615L587.68,615.809L587.758,616.007L587.825,616.209L587.882,616.414L587.927,616.623L587.962,616.833L587.985,617.045L587.996,617.257L587.997,617.47L587.986,617.683L587.964,617.895L587.93,618.105L587.886,618.314L587.83,618.519L587.764,618.722L587.686,618.92L587.599,619.114L587.501,619.304L587.393,619.487L587.276,619.665L587.15,619.836L587.014,620.001L586.87,620.158L586.718,620.306L586.558,620.447L586.391,620.579L586.217,620.702L586.037,620.815L585.851,620.919L585.659,621.012L585.463,621.095L585.263,621.168L585.06,621.23L584.853,621.281L584.644,621.321L584.433,621.349L584.221,621.367L584.008,621.373L583.795,621.368L583.583,621.351L583.372,621.323L583.163,621.284L582.956,621.234L582.752,621.173L582.552,621.101L582.355,621.018L582.164,620.925L551.592,605.099L551.406,604.996L551.225,604.884L551.05,604.762L550.883,604.63L550.722,604.49L550.57,604.342L550.425,604.186L550.289,604.022L550.161,603.851L550.043,603.674L549.935,603.49L549.836,603.302L549.748,603.108L549.67,602.91L549.603,602.707L549.546,602.502L549.501,602.294L549.467,602.084L549.444,601.872L549.432,601.659L549.432,601.446L549.442,601.233L549.465,601.021L549.498,600.811L549.543,600.603L549.598,600.397L549.665,600.195L549.742,599.996L549.829,599.802L549.927,599.613L550.035,599.429L550.152,599.251L550.279,599.08L550.414,598.916L550.558,598.759L550.711,598.61L550.87,598.469L551.038,598.337L551.212,598.215L551.392,598.101L551.578,597.998L551.769,597.904L551.965,597.821L552.165,597.748L552.369,597.686L552.575,597.636L552.784,597.596L552.995,597.567L553.207,597.55L553.42,597.544Z" style="fill:rgb(219,219,219);"/>
                            </g>
                            <g transform="matrix(0.150521,-0.538058,0.26071,0.310648,-724.906,476.516)">
                                <path d="M554.843,597.8L555.058,597.889L555.267,597.99L585.839,613.816L586.043,613.929L586.239,614.054L586.428,614.189L586.609,614.336L586.781,614.493L586.943,614.659L587.096,614.835L587.238,615.019L587.369,615.212L587.488,615.411L587.596,615.618L587.692,615.83L587.775,616.047L587.846,616.269L587.903,616.494L587.947,616.723L587.978,616.954L587.995,617.186L587.999,617.419L587.99,617.651L587.967,617.883L587.93,618.113L587.88,618.34L587.817,618.565L587.741,618.785L587.653,619L587.552,619.21L587.439,619.414L587.314,619.61L587.178,619.799L587.032,619.98L586.875,620.152L586.708,620.315L586.533,620.468L586.348,620.61L586.156,620.741L585.957,620.861L585.751,620.969L585.539,621.065L585.321,621.148L585.1,621.219L584.874,621.277L584.646,621.321L584.415,621.352L584.183,621.37L583.95,621.374L583.718,621.364L583.486,621.341L583.257,621.304L583.029,621.255L582.805,621.192L582.586,621.116L582.37,621.027L582.161,620.927L551.589,605.1L551.386,604.987L551.189,604.863L551,604.727L550.82,604.58L550.648,604.424L550.485,604.257L550.333,604.081L550.191,603.897L550.06,603.705L549.94,603.505L549.832,603.299L549.736,603.087L549.653,602.869L549.583,602.647L549.525,602.422L549.481,602.193L549.45,601.963L549.433,601.73L549.429,601.498L549.439,601.265L549.462,601.033L549.498,600.803L549.548,600.576L549.611,600.352L549.687,600.132L549.776,599.916L549.877,599.706L549.99,599.503L550.114,599.306L550.25,599.117L550.396,598.936L550.553,598.764L550.72,598.601L550.896,598.449L551.08,598.306L551.272,598.175L551.472,598.055L551.678,597.947L551.89,597.851L552.107,597.768L552.329,597.697L552.554,597.64L552.783,597.595L553.013,597.564L553.245,597.547L553.478,597.543L553.71,597.552L553.942,597.575L554.172,597.612L554.399,597.662L554.623,597.725L554.843,597.8Z" style="fill:rgb(219,219,219);"/>
                            </g>
                        </g>
                        <g transform="matrix(-0.513667,3.95641,-0.928874,-0.513667,-51.3572,2103.94)">
                            <g transform="matrix(0.0772,-0.275962,0.133714,0.159327,-597.612,465.267)">
                                <path d="M549.5,328C579.079,343.373 608.433,360.321 636.536,378.25C638.012,411.552 638.012,445.448 636.536,478.75C608.433,496.679 579.079,513.627 549.5,529C519.921,513.627 490.567,496.679 462.464,478.75C460.988,445.448 460.988,411.552 462.464,378.25C490.567,360.321 519.921,343.373 549.5,328Z" style="fill:none;stroke:rgb(219,219,219);stroke-width:16px;"/>
                            </g>
                            <g transform="matrix(0.0772,-0.275962,0.133714,0.159327,-561.645,420.557)">
                                <path d="M549.5,328C579.079,343.373 608.433,360.321 636.536,378.25C638.012,411.552 638.012,445.448 636.536,478.75C608.433,496.679 579.079,513.627 549.5,529C519.921,513.627 490.567,496.679 462.464,478.75C460.988,445.448 460.988,411.552 462.464,378.25C490.567,360.321 519.921,343.373 549.5,328Z" style="fill:none;stroke:rgb(219,219,219);stroke-width:16px;"/>
                            </g>
                            <g transform="matrix(0.0772,-0.275962,0.133714,0.159327,-584.259,513.609)">
                                <path d="M549.5,328C579.079,343.373 608.433,360.321 636.536,378.25C638.012,411.552 638.012,445.448 636.536,478.75C608.433,496.679 579.079,513.627 549.5,529C519.921,513.627 490.567,496.679 462.464,478.75C460.988,445.448 460.988,411.552 462.464,378.25C490.567,360.321 519.921,343.373 549.5,328Z" style="fill:none;stroke:rgb(219,219,219);stroke-width:16px;"/>
                            </g>
                            <g transform="matrix(0.150521,-0.538058,0.26071,0.310648,-746.838,568.693)">
                                <path d="M550.499,604.274L550.348,604.103L550.208,603.923L550.077,603.735L549.958,603.541L549.85,603.339L549.753,603.132L549.669,602.92L549.597,602.703L549.537,602.483L549.49,602.259L549.456,602.033L549.435,601.806L549.427,601.577L549.431,601.349L549.449,601.121L549.48,600.894L549.524,600.67L549.581,600.448L549.65,600.23L549.731,600.017L549.825,599.808L549.93,599.605L550.046,599.409L550.174,599.219L550.312,599.037L550.461,598.863L550.619,598.698L550.786,598.542L550.962,598.396L551.146,598.26L551.337,598.135L551.536,598.021L551.74,597.918L551.95,597.828L552.165,597.749L552.383,597.683L552.606,597.629L552.831,597.589L553.057,597.561L553.286,597.546L553.514,597.544L553.742,597.555L553.97,597.579L554.195,597.617L554.418,597.667L554.638,597.729L554.854,597.804L555.065,597.892L555.271,597.991L585.842,613.817L586.042,613.928L586.235,614.05L586.421,614.183L586.599,614.326L586.769,614.479L586.929,614.642L587.08,614.813L587.221,614.993L587.351,615.181L587.47,615.376L587.579,615.577L587.675,615.784L587.759,615.996L587.832,616.213L587.891,616.434L587.938,616.657L587.972,616.883L587.994,617.111L588.002,617.339L587.997,617.568L587.979,617.796L587.948,618.022L587.904,618.246L587.848,618.468L587.779,618.686L587.697,618.899L587.604,619.108L587.498,619.311L587.382,619.508L587.254,619.697L587.116,619.88L586.967,620.053L586.809,620.219L586.642,620.375L586.466,620.521L586.282,620.656L586.091,620.782L585.893,620.896L585.688,620.998L585.478,621.089L585.264,621.167L585.045,621.233L584.823,621.287L584.598,621.328L584.371,621.356L584.143,621.37L583.914,621.372L583.686,621.361L583.459,621.337L583.233,621.3L583.01,621.25L582.791,621.187L582.575,621.112L582.364,621.025L582.158,620.925L551.586,605.099L551.386,604.988L551.193,604.866L551.007,604.734L550.829,604.59L550.66,604.437L550.499,604.274Z" style="fill:rgb(219,219,219);"/>
                            </g>
                            <g transform="matrix(0.300527,0.0363242,-0.0176005,0.620234,-673.924,-42.9283)">
                                <path d="M585.124,621.211L584.885,621.273L584.644,621.32L584.399,621.352L584.154,621.369L583.908,621.371L583.662,621.357L583.417,621.329L583.175,621.285L582.936,621.227L582.7,621.154L582.47,621.066L582.246,620.965L532.963,596.853L532.745,596.738L532.535,596.61L532.333,596.469L532.14,596.316L531.957,596.151L531.784,595.975L531.622,595.789L531.472,595.594L531.335,595.389L531.21,595.177L531.099,594.957L531.001,594.731L530.917,594.499L530.848,594.263L530.794,594.022L530.754,593.779L530.729,593.534L530.72,593.288L530.725,593.042L530.746,592.796L530.782,592.552L530.833,592.311L530.899,592.074L530.979,591.841L531.073,591.613L531.181,591.392L531.302,591.178L531.437,590.971L531.584,590.774L531.742,590.585L531.912,590.407L532.093,590.24L532.284,590.084L532.483,589.94L532.692,589.809L532.908,589.691L533.131,589.587L533.36,589.496L533.594,589.42L533.832,589.358L534.074,589.311L534.318,589.279L534.563,589.262L534.809,589.26L535.055,589.273L535.3,589.302L535.542,589.345L535.781,589.404L536.017,589.477L536.247,589.564L536.471,589.666L585.754,613.778L585.972,613.893L586.182,614.021L586.384,614.162L586.577,614.315L586.761,614.48L586.933,614.655L587.095,614.841L587.245,615.037L587.382,615.241L587.507,615.454L587.619,615.673L587.716,615.9L587.8,616.131L587.869,616.368L587.924,616.608L587.963,616.851L587.988,617.096L587.997,617.343L587.992,617.589L587.971,617.834L587.935,618.078L587.884,618.319L587.819,618.557L587.739,618.79L587.644,619.017L587.536,619.239L587.415,619.453L587.28,619.659L587.134,619.857L586.975,620.045L586.805,620.223L586.624,620.391L586.434,620.546L586.234,620.69L586.025,620.821L585.809,620.939L585.586,621.044L585.358,621.135L585.124,621.211Z" style="fill:rgb(219,219,219);"/>
                            </g>
                            <g transform="matrix(0.300527,0.0363242,-0.0176005,0.620234,-676.075,-32.3496)">
                                <path d="M584.978,621.251L584.733,621.304L584.484,621.342L584.234,621.365L583.983,621.372L583.732,621.363L583.482,621.338L583.235,621.297L582.99,621.241L582.749,621.17L582.513,621.084L582.283,620.983L532.811,597.406L532.588,597.291L532.372,597.162L532.165,597.02L531.968,596.865L531.78,596.698L531.603,596.519L531.438,596.33L531.285,596.131L531.144,595.922L531.017,595.705L530.904,595.481L530.806,595.25L530.722,595.013L530.653,594.771L530.599,594.525L530.561,594.277L530.538,594.027L530.531,593.776L530.54,593.524L530.565,593.274L530.605,593.026L530.661,592.781L530.732,592.54L530.818,592.304L530.919,592.074L531.034,591.851L531.162,591.635L531.304,591.428L531.459,591.23L531.626,591.042L531.804,590.865L531.993,590.7L532.192,590.547L532.401,590.407L532.617,590.28L532.842,590.167L533.073,590.068L533.309,589.984L533.551,589.915L533.796,589.861L534.044,589.823L534.294,589.801L534.545,589.794L534.796,589.803L535.046,589.828L535.294,589.869L535.539,589.925L535.78,589.996L536.016,590.082L536.246,590.183L585.717,613.76L585.94,613.875L586.156,614.004L586.363,614.146L586.561,614.301L586.749,614.468L586.925,614.647L587.091,614.836L587.244,615.035L587.384,615.244L587.511,615.461L587.624,615.685L587.723,615.916L587.807,616.153L587.876,616.395L587.93,616.64L587.968,616.889L587.991,617.139L587.997,617.39L587.989,617.641L587.964,617.891L587.924,618.139L587.868,618.384L587.797,618.625L587.711,618.862L587.61,619.092L587.495,619.315L587.366,619.531L587.224,619.738L587.069,619.936L586.903,620.124L586.724,620.3L586.535,620.466L586.336,620.619L586.128,620.759L585.911,620.886L585.687,620.999L585.456,621.098L585.219,621.182L584.978,621.251Z" style="fill:rgb(219,219,219);"/>
                            </g>
                            <g transform="matrix(0.23967,-0.375959,0.182166,0.494635,-713.563,326.039)">
                                <path d="M582.37,621.027L582.16,620.927L551.589,605.1L551.385,604.987L551.189,604.863L551,604.727L550.819,604.58L550.647,604.424L550.485,604.257L550.332,604.081L550.19,603.897L550.059,603.705L549.939,603.505L549.832,603.299L549.736,603.087L549.653,602.869L549.582,602.647L549.525,602.422L549.481,602.193L549.45,601.962L549.432,601.73L549.429,601.498L549.438,601.265L549.461,601.033L549.498,600.803L549.548,600.576L549.611,600.352L549.687,600.132L549.776,599.916L549.876,599.706L549.989,599.503L550.114,599.306L550.25,599.117L550.396,598.936L550.553,598.764L550.72,598.601L550.896,598.449L551.08,598.306L551.272,598.175L551.472,598.055L551.678,597.947L551.89,597.851L552.107,597.768L552.329,597.697L552.555,597.64L552.783,597.595L553.014,597.564L553.246,597.547L553.478,597.543L553.711,597.552L553.942,597.575L554.172,597.612L554.399,597.662L554.623,597.725L554.843,597.8L555.058,597.889L555.268,597.99L585.84,613.816L586.043,613.929L586.24,614.054L586.429,614.189L586.609,614.336L586.781,614.493L586.944,614.659L587.096,614.835L587.238,615.019L587.369,615.212L587.489,615.411L587.597,615.618L587.692,615.83L587.776,616.047L587.846,616.269L587.903,616.495L587.948,616.723L587.978,616.954L587.996,617.186L588,617.419L587.99,617.651L587.967,617.883L587.93,618.113L587.88,618.341L587.817,618.565L587.741,618.785L587.653,619L587.552,619.21L587.439,619.414L587.314,619.61L587.178,619.799L587.032,619.98L586.875,620.152L586.708,620.315L586.533,620.468L586.348,620.61L586.156,620.741L585.957,620.861L585.75,620.969L585.538,621.065L585.321,621.148L585.099,621.219L584.874,621.277L584.645,621.321L584.415,621.352L584.183,621.37L583.95,621.374L583.718,621.364L583.486,621.341L583.256,621.305L583.029,621.255L582.805,621.192L582.585,621.116L582.37,621.027Z" style="fill:rgb(219,219,219);"/>
                            </g>
                            <g transform="matrix(0.150521,-0.538058,0.26071,0.310648,-724.906,476.516)">
                                <path d="M550.499,604.274L550.348,604.103L550.208,603.923L550.077,603.735L549.958,603.541L549.85,603.339L549.753,603.132L549.669,602.92L549.597,602.703L549.537,602.483L549.49,602.259L549.456,602.033L549.435,601.805L549.427,601.577L549.431,601.349L549.449,601.121L549.48,600.894L549.524,600.67L549.581,600.448L549.65,600.23L549.731,600.017L549.825,599.808L549.93,599.605L550.046,599.409L550.174,599.219L550.312,599.037L550.461,598.863L550.619,598.698L550.786,598.542L550.962,598.396L551.146,598.26L551.337,598.135L551.536,598.021L551.74,597.918L551.95,597.828L552.165,597.749L552.383,597.683L552.606,597.629L552.831,597.589L553.057,597.561L553.286,597.546L553.514,597.544L553.742,597.555L553.97,597.579L554.195,597.617L554.418,597.667L554.638,597.729L554.854,597.804L555.065,597.892L555.271,597.991L585.842,613.817L586.042,613.928L586.235,614.05L586.421,614.183L586.599,614.326L586.768,614.479L586.929,614.642L587.08,614.813L587.221,614.993L587.351,615.181L587.47,615.376L587.579,615.577L587.675,615.784L587.759,615.996L587.832,616.213L587.891,616.434L587.938,616.657L587.972,616.883L587.994,617.111L588.002,617.339L587.997,617.568L587.979,617.796L587.948,618.022L587.904,618.246L587.848,618.468L587.779,618.686L587.697,618.899L587.604,619.108L587.498,619.311L587.382,619.508L587.254,619.697L587.116,619.88L586.967,620.053L586.809,620.219L586.642,620.375L586.466,620.521L586.282,620.656L586.091,620.782L585.893,620.896L585.688,620.998L585.478,621.089L585.264,621.167L585.045,621.233L584.823,621.287L584.598,621.328L584.371,621.356L584.143,621.37L583.914,621.372L583.686,621.361L583.459,621.337L583.233,621.3L583.01,621.25L582.79,621.187L582.575,621.112L582.364,621.025L582.158,620.925L551.586,605.099L551.386,604.988L551.193,604.866L551.007,604.734L550.829,604.59L550.66,604.437L550.499,604.274Z" style="fill:rgb(219,219,219);"/>
                            </g>
                        </g>
                        <g id="Mini-Compound" transform="matrix(2.0592,6.25488e-16,1.01642e-15,1.92209,713.818,-167.038)">
                            <g transform="matrix(0.1544,0,0,0.318654,-545.478,183.303)">
                                <path d="M549.5,328C579.079,343.373 608.433,360.321 636.536,378.25C638.012,411.552 638.012,445.448 636.536,478.75C608.433,496.679 579.079,513.627 549.5,529C519.921,513.627 490.567,496.679 462.464,478.75C460.988,445.448 460.988,411.552 462.464,378.25C490.567,360.321 519.921,343.373 549.5,328Z" style="fill:none;stroke:rgb(219,219,219);stroke-width:16px;"/>
                            </g>
                            <g transform="matrix(8.02261e-18,0.2704,-0.135415,1.71128e-17,-376.648,171.228)">
                                <path d="M549.5,328C582.321,349.245 614.734,372.795 645.081,397.444C635.018,435.223 622.638,473.327 608.572,509.806C569.533,511.91 529.467,511.91 490.428,509.806C476.362,473.327 463.982,435.223 453.919,397.444C484.266,372.795 516.679,349.245 549.5,328Z" style="fill:none;stroke:rgb(219,219,219);stroke-width:16px;"/>
                            </g>
                            <g transform="matrix(0.301042,0,0,0.621296,-627.082,14.7371)">
                                <path d="M649.248,449.239L649.265,448.994L649.296,448.751L649.341,448.51L649.399,448.272L649.469,448.039L649.553,447.81L664.438,410.377L664.535,410.154L664.643,409.938L664.763,409.729L664.894,409.527L665.036,409.335L665.189,409.152L665.352,408.978L665.524,408.816L665.704,408.664L665.893,408.525L666.089,408.397L666.292,408.282L666.501,408.18L666.715,408.092L666.933,408.017L667.155,407.957L667.381,407.91L667.608,407.878L667.837,407.861L668.066,407.857L668.295,407.869L668.524,407.895L668.75,407.935L668.973,407.99L669.194,408.059L669.41,408.141L669.621,408.238L669.826,408.347L670.025,408.469L670.217,408.604L670.401,408.75L670.577,408.908L670.743,409.077L670.9,409.256L671.047,409.445L671.183,409.643L671.308,409.849L671.421,410.062L671.523,410.283L671.611,410.509L671.688,410.74L671.751,410.977L671.801,411.216L671.838,411.459L671.861,411.703L671.87,411.948L671.867,412.194L671.849,412.439L671.818,412.682L671.774,412.923L671.716,413.16L671.645,413.394L671.562,413.623L656.676,451.055L656.58,451.278L656.472,451.495L656.352,451.704L656.22,451.905L656.078,452.098L655.925,452.281L655.763,452.454L655.591,452.617L655.41,452.769L655.221,452.908L655.025,453.036L654.823,453.151L654.614,453.252L654.4,453.341L654.181,453.415L653.959,453.476L653.734,453.523L653.506,453.555L653.277,453.572L653.048,453.575L652.819,453.564L652.591,453.538L652.365,453.497L652.141,453.443L651.921,453.374L651.705,453.291L651.494,453.195L651.288,453.086L651.089,452.964L650.897,452.829L650.713,452.682L650.538,452.524L650.371,452.356L650.214,452.177L650.067,451.988L649.931,451.79L649.806,451.584L649.693,451.371L649.592,451.15L649.503,450.924L649.427,450.692L649.364,450.456L649.314,450.217L649.277,449.974L649.254,449.73L649.244,449.485L649.248,449.239Z" style="fill:rgb(219,219,219);"/>
                            </g>
                            <g transform="matrix(0.301042,0,0,0.621296,-627.082,10.1584)">
                                <path d="M680.489,498.184L680.514,497.914L680.555,497.647L680.613,497.383L680.686,497.123L680.776,496.869L680.88,496.623L681,496.383L681.133,496.153L681.281,495.933L681.442,495.723L681.615,495.525L681.8,495.34L681.995,495.168L682.201,495.01L682.416,494.867L682.64,494.739L682.87,494.627L683.107,494.532L683.35,494.453L683.597,494.391L683.846,494.347L684.099,494.321L684.352,494.312L726,494.312L726.253,494.321L726.505,494.347L726.755,494.391L727.002,494.453L727.244,494.532L727.481,494.627L727.712,494.739L727.935,494.867L728.15,495.01L728.356,495.168L728.552,495.34L728.737,495.525L728.91,495.723L729.071,495.933L729.218,496.153L729.352,496.383L729.472,496.623L729.576,496.869L729.665,497.123L729.739,497.383L729.796,497.647L729.838,497.914L729.862,498.184L729.871,498.455L729.862,498.726L729.838,498.996L729.796,499.263L729.739,499.527L729.665,499.787L729.576,500.04L729.472,500.287L729.352,500.527L729.218,500.757L729.071,500.977L728.91,501.187L728.737,501.385L728.552,501.57L728.356,501.742L728.15,501.9L727.935,502.043L727.712,502.171L727.481,502.283L727.244,502.378L727.002,502.457L726.755,502.519L726.505,502.563L726.253,502.589L726,502.598L684.352,502.598L684.099,502.589L683.846,502.563L683.597,502.519L683.35,502.457L683.107,502.378L682.87,502.283L682.64,502.171L682.416,502.043L682.201,501.9L681.995,501.742L681.8,501.57L681.615,501.385L681.442,501.187L681.281,500.977L681.133,500.757L681,500.527L680.88,500.287L680.776,500.04L680.686,499.787L680.613,499.527L680.555,499.263L680.514,498.996L680.489,498.726L680.481,498.455L680.489,498.184Z" style="fill:rgb(219,219,219);"/>
                            </g>
                            <g transform="matrix(1.56776e-17,0.621296,-0.301042,3.8894e-16,-310.58,-74.5299)">
                                <path d="M684.092,502.318L683.832,502.295L683.575,502.257L683.321,502.204L683.071,502.136L682.827,502.054L682.588,501.957L682.356,501.847L682.132,501.723L681.916,501.586L681.711,501.437L681.516,501.277L681.332,501.105L681.159,500.922L681,500.73L680.854,500.529L680.721,500.32L680.603,500.103L680.5,499.88L680.411,499.651L680.339,499.418L680.282,499.18L680.241,498.94L680.217,498.698L680.209,498.455L680.217,498.212L680.241,497.97L680.282,497.73L680.339,497.492L680.411,497.259L680.5,497.03L680.603,496.807L680.721,496.59L680.854,496.381L681,496.18L681.159,495.988L681.332,495.805L681.516,495.633L681.711,495.473L681.916,495.323L682.132,495.187L682.356,495.063L682.588,494.953L682.827,494.856L683.071,494.774L683.321,494.706L683.575,494.653L683.832,494.615L684.092,494.592L684.352,494.584L726,494.584L726.26,494.592L726.519,494.615L726.776,494.653L727.03,494.706L727.28,494.774L727.525,494.856L727.764,494.953L727.996,495.063L728.22,495.187L728.435,495.323L728.641,495.473L728.836,495.633L729.02,495.805L729.192,495.988L729.352,496.18L729.498,496.381L729.631,496.59L729.749,496.807L729.852,497.03L729.94,497.259L730.013,497.492L730.07,497.73L730.11,497.97L730.135,498.212L730.143,498.455L730.135,498.698L730.11,498.94L730.07,499.18L730.013,499.418L729.94,499.651L729.852,499.88L729.749,500.103L729.631,500.32L729.498,500.529L729.352,500.73L729.192,500.922L729.02,501.105L728.836,501.277L728.641,501.437L728.435,501.586L728.22,501.723L727.996,501.847L727.764,501.957L727.525,502.054L727.28,502.136L727.03,502.204L726.776,502.257L726.519,502.295L726.26,502.318L726,502.326L684.352,502.326L684.092,502.318Z" style="fill:rgb(219,219,219);"/>
                            </g>
                            <g transform="matrix(0.301042,0,0,0.621296,-627.082,10.1584)">
                                <path d="M538.515,391.69L538.548,391.382L538.601,391.078L538.676,390.779L538.772,390.486L538.888,390.202L539.023,389.928L539.177,389.666L539.349,389.417L539.538,389.182L539.742,388.963L539.962,388.761L540.195,388.577L540.44,388.412L540.696,388.267L540.961,388.143L541.234,388.041L541.514,387.961L541.798,387.903L542.086,387.868L542.375,387.857L542.664,387.868L542.952,387.903L543.236,387.961L543.516,388.041L543.789,388.143L544.055,388.267L544.31,388.412L544.556,388.577L544.788,388.761L545.008,388.963L545.213,389.182L545.401,389.417L545.573,389.666L545.727,389.928L545.862,390.202L545.978,390.486L546.074,390.779L546.149,391.078L546.203,391.382L546.235,391.69L546.246,392L546.246,452.521L546.235,452.83L546.203,453.138L546.149,453.443L546.074,453.742L545.978,454.035L545.862,454.319L545.727,454.592L545.573,454.855L545.401,455.104L545.213,455.339L545.008,455.558L544.788,455.76L544.556,455.944L544.31,456.109L544.055,456.254L543.789,456.378L543.516,456.48L543.236,456.56L542.952,456.618L542.664,456.652L542.375,456.664L542.086,456.652L541.798,456.618L541.514,456.56L541.234,456.48L540.961,456.378L540.696,456.254L540.44,456.109L540.195,455.944L539.962,455.76L539.742,455.558L539.538,455.339L539.349,455.104L539.177,454.855L539.023,454.592L538.888,454.319L538.772,454.035L538.676,453.742L538.601,453.443L538.548,453.138L538.515,452.83L538.504,452.521L538.504,392L538.515,391.69Z" style="fill:rgb(219,219,219);"/>
                            </g>
                            <g transform="matrix(0.301042,0,0,0.621296,-627.082,10.1584)">
                                <path d="M559.57,391.69L559.602,391.382L559.656,391.078L559.731,390.779L559.827,390.486L559.942,390.202L560.078,389.928L560.232,389.666L560.404,389.417L560.592,389.182L560.797,388.963L561.016,388.761L561.249,388.577L561.494,388.412L561.75,388.267L562.016,388.143L562.289,388.041L562.568,387.961L562.853,387.903L563.141,387.868L563.43,387.857L563.719,387.868L564.007,387.903L564.291,387.961L564.571,388.041L564.844,388.143L565.109,388.267L565.365,388.412L565.61,388.577L565.843,388.761L566.063,388.963L566.267,389.182L566.456,389.417L566.628,389.666L566.782,389.928L566.917,390.202L567.033,390.486L567.129,390.779L567.203,391.078L567.257,391.382L567.29,391.69L567.301,392L567.301,452.521L567.29,452.83L567.257,453.138L567.203,453.443L567.129,453.742L567.033,454.035L566.917,454.319L566.782,454.592L566.628,454.855L566.456,455.104L566.267,455.339L566.063,455.558L565.843,455.76L565.61,455.944L565.365,456.109L565.109,456.254L564.844,456.378L564.571,456.48L564.291,456.56L564.007,456.618L563.719,456.652L563.43,456.664L563.141,456.652L562.853,456.618L562.568,456.56L562.289,456.48L562.016,456.378L561.75,456.254L561.494,456.109L561.249,455.944L561.016,455.76L560.797,455.558L560.592,455.339L560.404,455.104L560.232,454.855L560.078,454.592L559.942,454.319L559.827,454.035L559.731,453.742L559.656,453.443L559.602,453.138L559.57,452.83L559.559,452.521L559.559,392L559.57,391.69Z" style="fill:rgb(219,219,219);"/>
                            </g>
                        </g>
                        <g id="Mini-Compound1" transform="matrix(2.0592,6.25488e-16,1.01642e-15,1.92209,584.294,-550.102)">
                            <g transform="matrix(0.1544,0,-3.14217e-32,0.318654,-542.746,92.0716)">
                                <path d="M549.5,328C579.079,343.373 608.433,360.321 636.536,378.25C638.012,411.552 638.012,445.448 636.536,478.75C608.433,496.679 579.079,513.627 549.5,529C519.921,513.627 490.567,496.679 462.464,478.75C460.988,445.448 460.988,411.552 462.464,378.25C490.567,360.321 519.921,343.373 549.5,328Z" style="fill:none;stroke:rgb(219,219,219);stroke-width:16px;"/>
                            </g>
                            <g transform="matrix(-0.101707,0.129833,-0.0565012,-0.216379,-366.509,292.123)">
                                <path d="M549.5,328C582.321,349.245 614.734,372.795 645.081,397.444C635.018,435.223 622.638,473.327 608.572,509.806C569.533,511.91 529.467,511.91 490.428,509.806C476.362,473.327 463.982,435.223 453.919,397.444C484.266,372.795 516.679,349.245 549.5,328Z" style="fill:none;stroke:rgb(219,219,219);stroke-width:16.68px;"/>
                            </g>
                            <g transform="matrix(0.301042,0,-1.83794e-31,0.621296,-690.138,-73.0519)">
                                <path d="M680.489,498.184L680.514,497.914L680.555,497.647L680.613,497.383L680.686,497.123L680.776,496.869L680.88,496.623L681,496.383L681.133,496.153L681.281,495.933L681.442,495.723L681.615,495.525L681.8,495.34L681.995,495.168L682.201,495.01L682.416,494.867L682.64,494.739L682.87,494.627L683.108,494.532L683.35,494.453L683.597,494.391L683.846,494.347L684.099,494.321L684.352,494.312L726,494.312L726.253,494.321L726.505,494.347L726.755,494.391L727.002,494.453L727.244,494.532L727.481,494.627L727.712,494.739L727.935,494.867L728.15,495.01L728.356,495.168L728.552,495.34L728.737,495.525L728.91,495.723L729.071,495.933L729.218,496.153L729.352,496.383L729.472,496.623L729.576,496.869L729.665,497.123L729.739,497.383L729.796,497.647L729.838,497.914L729.862,498.184L729.871,498.455L729.862,498.726L729.838,498.996L729.796,499.263L729.739,499.527L729.665,499.787L729.576,500.041L729.472,500.287L729.352,500.527L729.218,500.757L729.071,500.977L728.91,501.187L728.737,501.385L728.552,501.57L728.356,501.742L728.15,501.9L727.935,502.043L727.712,502.171L727.481,502.283L727.244,502.378L727.002,502.457L726.755,502.519L726.505,502.563L726.253,502.589L726,502.598L684.352,502.598L684.099,502.589L683.846,502.563L683.597,502.519L683.35,502.457L683.108,502.378L682.87,502.283L682.64,502.171L682.416,502.043L682.201,501.9L681.995,501.742L681.8,501.57L681.615,501.385L681.442,501.187L681.281,500.977L681.133,500.757L681,500.527L680.88,500.287L680.776,500.041L680.686,499.787L680.613,499.527L680.555,499.263L680.514,498.996L680.489,498.726L680.481,498.455L680.489,498.184Z" style="fill:rgb(219,219,219);"/>
                            </g>
                        </g>
                        <g transform="matrix(1,0,0,1,16.3493,-45.5086)">
                            <g transform="matrix(0.409153,0.844419,-0.438339,0.904654,-476.584,-816.93)">
                                <path d="M681.228,501.004L681.088,500.845L680.956,500.68L680.834,500.508L680.722,500.331L680.621,500.148L680.53,499.96L680.449,499.768L680.38,499.572L680.322,499.374L680.276,499.172L680.241,498.969L680.218,498.764L680.206,498.558L680.206,498.352L680.218,498.146L680.242,497.941L680.277,497.738L680.324,497.536L680.382,497.338L680.452,497.142L680.532,496.95L680.624,496.762L680.726,496.579L680.838,496.402L680.96,496.23L681.092,496.065L681.233,495.906L681.383,495.755L681.542,495.611L681.708,495.475L681.882,495.348L682.062,495.229L682.25,495.12L682.443,495.02L682.642,494.93L682.845,494.85L683.053,494.78L683.264,494.721L683.479,494.672L683.696,494.633L683.915,494.606L684.135,494.59L684.355,494.584L726.004,494.584L726.224,494.59L726.445,494.606L726.663,494.633L726.88,494.672L727.095,494.72L727.306,494.78L727.514,494.85L727.717,494.93L727.915,495.02L728.109,495.12L728.296,495.229L728.476,495.348L728.65,495.475L728.816,495.611L728.974,495.755L729.123,495.906L729.264,496.065L729.396,496.23L729.518,496.402L729.629,496.579L729.731,496.762L729.822,496.95L729.902,497.142L729.972,497.337L730.029,497.536L730.076,497.738L730.111,497.941L730.134,498.146L730.146,498.352L730.145,498.558L730.133,498.764L730.11,498.969L730.075,499.172L730.028,499.374L729.969,499.572L729.9,499.768L729.819,499.96L729.728,500.148L729.626,500.331L729.514,500.508L729.391,500.68L729.26,500.845L729.118,501.004L728.969,501.155L728.81,501.299L728.644,501.435L728.47,501.562L728.289,501.681L728.102,501.79L727.909,501.89L727.71,501.98L727.507,502.06L727.299,502.13L727.087,502.189L726.873,502.238L726.656,502.277L726.437,502.304L726.217,502.32L725.996,502.326L684.348,502.326L684.127,502.32L683.907,502.304L683.688,502.277L683.471,502.238L683.257,502.189L683.046,502.13L682.838,502.06L682.635,501.98L682.436,501.89L682.243,501.79L682.056,501.681L681.876,501.562L681.702,501.435L681.536,501.299L681.378,501.155L681.228,501.004Z" style="fill:rgb(219,219,219);"/>
                            </g>
                            <g transform="matrix(0.57863,-3.76348e-17,-3.52234e-16,1.27937,-744.196,-358.584)">
                                <path d="M680.213,498.212L680.237,497.97L680.278,497.73L680.335,497.493L680.408,497.26L680.496,497.031L680.599,496.808L680.718,496.592L680.85,496.383L680.997,496.182L681.156,495.99L681.329,495.807L681.513,495.636L681.708,495.475L681.914,495.326L682.13,495.19L682.354,495.066L682.586,494.956L682.825,494.859L683.07,494.777L683.32,494.709L683.575,494.656L683.832,494.618L684.091,494.595L684.352,494.587L726,494.587L726.26,494.595L726.52,494.618L726.777,494.656L727.031,494.709L727.282,494.777L727.527,494.859L727.766,494.956L727.998,495.066L728.222,495.19L728.438,495.326L728.643,495.475L728.839,495.636L729.023,495.807L729.195,495.99L729.355,496.182L729.502,496.383L729.634,496.592L729.752,496.808L729.856,497.031L729.944,497.26L730.017,497.493L730.074,497.73L730.114,497.97L730.139,498.212L730.147,498.455L730.139,498.698L730.114,498.94L730.074,499.18L730.017,499.417L729.944,499.65L729.856,499.879L729.752,500.102L729.634,500.318L729.502,500.527L729.355,500.728L729.195,500.92L729.023,501.102L728.839,501.274L728.643,501.435L728.438,501.584L728.222,501.72L727.998,501.844L727.766,501.954L727.527,502.051L727.282,502.133L727.031,502.201L726.777,502.254L726.52,502.292L726.26,502.315L726,502.322L684.352,502.322L684.091,502.315L683.832,502.292L683.575,502.254L683.32,502.201L683.07,502.133L682.825,502.051L682.586,501.954L682.354,501.844L682.13,501.72L681.914,501.584L681.708,501.435L681.513,501.274L681.329,501.102L681.156,500.92L680.997,500.728L680.85,500.527L680.718,500.318L680.599,500.102L680.496,499.879L680.408,499.65L680.335,499.417L680.278,499.18L680.237,498.94L680.213,498.698L680.205,498.455L680.213,498.212Z" style="fill:rgb(219,219,219);"/>
                            </g>
                            <g transform="matrix(1.71954e-17,-1.19419,0.619906,8.05288e-16,-694.186,1219.5)">
                                <path d="M726.26,494.592L726.519,494.615L726.776,494.653L727.03,494.706L727.28,494.774L727.525,494.856L727.764,494.953L727.996,495.063L728.22,495.187L728.435,495.323L728.641,495.473L728.836,495.633L729.02,495.805L729.192,495.988L729.352,496.18L729.498,496.381L729.631,496.59L729.749,496.807L729.852,497.03L729.94,497.259L730.013,497.492L730.07,497.73L730.11,497.97L730.135,498.212L730.143,498.455L730.135,498.698L730.11,498.94L730.07,499.18L730.013,499.418L729.94,499.651L729.852,499.88L729.749,500.103L729.631,500.32L729.498,500.529L729.352,500.73L729.192,500.922L729.02,501.105L728.836,501.277L728.641,501.437L728.435,501.586L728.22,501.723L727.996,501.847L727.764,501.957L727.525,502.054L727.28,502.136L727.03,502.204L726.776,502.257L726.519,502.295L726.26,502.318L726,502.326L684.352,502.326L684.092,502.318L683.832,502.295L683.575,502.257L683.321,502.204L683.071,502.136L682.827,502.054L682.588,501.957L682.356,501.847L682.132,501.723L681.916,501.586L681.711,501.437L681.516,501.277L681.332,501.105L681.159,500.922L681,500.73L680.854,500.529L680.721,500.32L680.603,500.103L680.5,499.88L680.411,499.651L680.339,499.418L680.282,499.18L680.241,498.94L680.217,498.698L680.209,498.455L680.217,498.212L680.241,497.97L680.282,497.73L680.339,497.492L680.411,497.259L680.5,497.03L680.603,496.807L680.721,496.59L680.854,496.381L681,496.18L681.159,495.988L681.332,495.805L681.516,495.633L681.711,495.473L681.916,495.323L682.132,495.187L682.356,495.063L682.588,494.953L682.827,494.856L683.071,494.774L683.321,494.706L683.575,494.653L683.832,494.615L684.092,494.592L684.352,494.584L726,494.584L726.26,494.592Z" style="fill:rgb(219,219,219);"/>
                            </g>
                            <g transform="matrix(0.437035,0.782655,-0.406278,0.966303,-519.736,-783.175)">
                                <path d="M681.048,500.797L680.917,500.627L680.796,500.45L680.686,500.268L680.586,500.08L680.498,499.888L680.42,499.691L680.355,499.49L680.301,499.287L680.259,499.081L680.228,498.873L680.21,498.665L680.204,498.455L680.211,498.245L680.229,498.036L680.26,497.829L680.302,497.623L680.357,497.419L680.423,497.219L680.5,497.022L680.589,496.83L680.689,496.642L680.8,496.459L680.921,496.283L681.052,496.113L681.193,495.949L681.343,495.793L681.502,495.645L681.67,495.505L681.845,495.374L682.027,495.251L682.217,495.138L682.412,495.035L682.614,494.942L682.82,494.859L683.031,494.787L683.246,494.725L683.464,494.675L683.684,494.635L683.907,494.607L684.131,494.59L684.355,494.584L726.004,494.584L726.228,494.59L726.452,494.607L726.675,494.635L726.895,494.675L727.113,494.725L727.328,494.787L727.539,494.859L727.745,494.942L727.946,495.035L728.141,495.138L728.33,495.251L728.513,495.374L728.688,495.505L728.855,495.645L729.013,495.793L729.163,495.949L729.304,496.113L729.435,496.283L729.556,496.459L729.666,496.642L729.766,496.83L729.854,497.022L729.931,497.219L729.997,497.419L730.051,497.623L730.093,497.829L730.123,498.036L730.141,498.245L730.147,498.455L730.141,498.665L730.123,498.873L730.092,499.081L730.05,499.287L729.995,499.49L729.929,499.691L729.851,499.888L729.762,500.08L729.662,500.268L729.552,500.45L729.431,500.627L729.299,500.797L729.158,500.961L729.008,501.117L728.849,501.265L728.682,501.405L728.507,501.536L728.324,501.659L728.135,501.772L727.939,501.875L727.738,501.968L727.532,502.051L727.321,502.123L727.106,502.185L726.888,502.235L726.667,502.275L726.445,502.303L726.221,502.32L725.996,502.326L684.348,502.326L684.124,502.32L683.9,502.303L683.677,502.275L683.457,502.235L683.239,502.185L683.024,502.123L682.813,502.051L682.607,501.968L682.406,501.875L682.21,501.772L682.021,501.659L681.839,501.536L681.664,501.405L681.497,501.265L681.338,501.117L681.188,500.961L681.048,500.797Z" style="fill:rgb(219,219,219);"/>
                            </g>
                            <g transform="matrix(0.30988,0.146817,-0.0664019,0.596954,-520.343,-40.1259)">
                                <path d="M549.5,328C579.079,343.373 608.433,360.321 636.536,378.25C638.012,411.552 638.012,445.448 636.536,478.75C608.433,496.679 579.079,513.627 549.5,529C519.921,513.627 490.567,496.679 462.464,478.75C460.988,445.448 460.988,411.552 462.464,378.25C490.567,360.321 519.921,343.373 549.5,328Z" style="fill:none;stroke:rgb(219,219,219);stroke-width:16px;"/>
                            </g>
                        </g>
                    </g>
                </g>
            </g>
        </g>
    </g>
</svg>
