<?xml version="1.0" encoding="UTF-8" standalone="no"?><!DOCTYPE svg PUBLIC "-//W3C//DTD SVG 1.1//EN" "http://www.w3.org/Graphics/SVG/1.1/DTD/svg11.dtd"><svg width="100%" height="100%" viewBox="0 0 480 360" version="1.1" xmlns="http://www.w3.org/2000/svg" xmlns:xlink="http://www.w3.org/1999/xlink" xml:space="preserve" style="fill-rule:evenodd;clip-rule:evenodd;stroke-linejoin:round;stroke-miterlimit:1.41421;"><g><g id="____Group_"><path id="____Path_2" d="M79.459,259.705l42.035,-229.95c0.628,-3.318 3.296,-6.051 6.917,-7.087c3.621,-1.036 7.593,-0.202 10.301,2.161l264.864,234.876l-146.612,72.77c-9.226,4.478 -20.4,4.478 -29.627,0l-147.878,-72.77l0,0Z" style="fill:#ffa726;fill-rule:nonzero;"/><path id="____Path_21" d="M121.622,116.056l12.303,-73.788c0.184,-1.064 0.965,-1.942 2.025,-2.274c1.06,-0.332 2.222,-0.065 3.015,0.694l77.523,75.368l-42.912,23.351c-2.7,1.437 -5.97,1.437 -8.672,0l-43.282,-23.351l0,0Z" style="fill-opacity:0.137255;fill-rule:nonzero;"/><path id="____Path_22" d="M404.133,261.642l-42.034,-229.95c-0.628,-3.319 -3.296,-6.052 -6.917,-7.088c-3.621,-1.035 -7.593,-0.202 -10.301,2.162l-264.863,234.876l146.611,72.769c9.227,4.479 20.401,4.479 29.627,0l147.877,-72.769l0,0Z" style="fill:#ffca28;fill-rule:nonzero;"/><path id="____Path_23" d="M364.906,116.056l-12.303,-73.788c-0.184,-1.064 -0.964,-1.942 -2.025,-2.274c-1.06,-0.332 -2.222,-0.065 -3.015,0.694l-77.523,75.368l42.912,23.351c2.7,1.437 5.971,1.437 8.672,0l43.282,-23.351l0,0Z" style="fill-opacity:0.137255;fill-rule:nonzero;"/></g><g><path d="M228.12,221.844l-39.376,25.804l-19.689,-12.904l59.065,-38.703l0,25.804l0,-0.001Z" style="fill:#536dfe;fill-rule:nonzero;"/><path d="M228.12,221.844l-39.376,25.804l-19.689,-12.904l59.065,-38.703l0,25.804l0,-0.001Z" style="fill:#1e88e5;fill-rule:nonzero;"/><path d="M188.744,221.844l-19.689,12.9l-19.688,-12.899l19.688,-12.904l19.689,12.903Z" style="fill:#0d47a1;fill-rule:nonzero;"/></g><g><g><path d="M323.539,217.534l-39.377,25.803l-19.688,-12.903l59.065,-38.703l0,25.803Z" style="fill:#536dfe;fill-rule:nonzero;"/><path d="M323.539,217.534l-19.688,-12.904l19.688,-12.899l0,25.803Z" style="fill:#fff;fill-opacity:0.2;fill-rule:nonzero;"/><path d="M303.851,230.434l19.688,-12.9l-19.688,-12.904l0,25.804Z" style="fill:#fff;fill-opacity:0.0901961;fill-rule:nonzero;"/><path d="M303.851,230.434l-19.689,-12.9l19.689,-12.904l0,25.804Z" style="fill:none;"/><path d="M284.162,243.337l19.689,-12.903l-19.689,-12.9l0,25.803Z" style="fill-opacity:0.0901961;fill-rule:nonzero;"/><path d="M284.162,243.337l-19.688,-12.903l19.688,-12.9l0,25.803Z" style="fill-opacity:0.2;fill-rule:nonzero;"/></g><path d="M323.539,217.534l-39.377,25.803l-19.688,-12.903l59.065,-38.703l0,25.803Z" style="fill:#1e88e5;fill-rule:nonzero;"/><path d="M284.162,217.534l-19.688,12.899l-19.688,-12.899l19.688,-12.904l19.688,12.904Z" style="fill:#0d47a1;fill-rule:nonzero;"/></g><g><path d="M203.045,302.019l20.282,-39.864l20.277,39.864l-40.558,0l-0.001,0Z" style="fill-opacity:0.2;fill-rule:nonzero;"/><path d="M263.883,262.155l-20.281,39.864l-20.277,-39.864l40.558,0Z" style="fill-opacity:0.2;fill-rule:nonzero;"/><path d="M263.883,262.155l-20.281,39.864l-20.277,-39.864l40.558,0Z" style="fill-opacity:0.2;fill-rule:nonzero;"/><path d="M243.604,302.019l20.282,-39.864l20.276,39.864l-40.558,0l0,0Z" style="fill-opacity:0.2;fill-rule:nonzero;"/></g><g><path d="M33.198,248.539l-33.198,-25.061c31.104,-14.871 58.08,-32.607 82.232,-52.304l16.599,12.531c-25.878,19.396 -47.725,41.025 -65.633,64.834l0,0Z" style="fill:#f50057;"/><path d="M33.198,248.539l-33.198,-25.061c27.805,-9.56 55.209,-27.116 82.232,-52.304l16.599,12.531c-25.047,19.834 -47.064,41.367 -65.633,64.834l0,0Z" style="fill-opacity:0.137255;"/></g><g><path d="M17.012,207.265l3.247,-29.784c24.101,-2.357 48.957,-8.041 74.496,-16.756l-1.623,14.892c-25.398,6.753 -50.772,17.159 -76.12,31.648l0,0Z" style="fill:#f50057;"/><path d="M17.012,207.265l3.247,-29.784c25.995,-1.572 50.713,-7.553 74.496,-16.756l-1.623,14.892c-24.936,6.85 -50.308,17.384 -76.12,31.648l0,0Z" style="fill-opacity:0.337255;"/></g><ellipse cx="92.75" cy="172.111" rx="12.732" ry="14.824" style="fill:#f50057;"/><ellipse cx="92.471" cy="174.58" rx="13.011" ry="12.356" style="fill-opacity:0.239216;"/><g><clipPath id="_clip1"><path d="M375.761,-75.065l-295.743,17.326l18.9,415.573l295.744,-17.327l-18.901,-415.572Z"/></clipPath><g clip-path="url(#_clip1)"><path d="M383.677,170.998l-324.475,27.718l38.373,-87.329l324.475,-27.72l-38.373,87.331Z" style="fill:#f50057;fill-rule:nonzero;"/><clipPath id="_clip2"><path d="M383.677,170.998l-324.475,27.718l38.373,-87.329l324.475,-27.72l-38.373,87.331Z"/></clipPath><g clip-path="url(#_clip2)"><path d="M381.038,195.452l-290.282,106.567l17.778,-93.875l290.282,-106.569l-17.778,93.877Z" style="fill:#fff;fill-opacity:0.239216;fill-rule:nonzero;"/></g></g></g></g></svg>